<?xml version="1.0" encoding="UTF-8" standalone="no"?>
<!-- Created with Inkscape (http://www.inkscape.org/) -->

<svg
   version="1.1"
   id="svg369"
   width="1387.4266"
   height="693.70667"
   viewBox="0 0 1387.4266 693.70665"
   sodipodi:docname="iStock-1215484690.eps"
   inkscape:version="1.2.2 (b0a84865, 2022-12-01)"
   xmlns:inkscape="http://www.inkscape.org/namespaces/inkscape"
   xmlns:sodipodi="http://sodipodi.sourceforge.net/DTD/sodipodi-0.dtd"
   xmlns="http://www.w3.org/2000/svg"
   xmlns:svg="http://www.w3.org/2000/svg">
  <defs
     id="defs373">
    <clipPath
       clipPathUnits="userSpaceOnUse"
       id="clipPath389">
      <path
         d="m 0,10892 h 23327 v 9545 H 0 Z"
         id="path387" />
    </clipPath>
    <clipPath
       clipPathUnits="userSpaceOnUse"
       id="clipPath395">
      <path
         d="m 23327.5,10892.5 h -5804.9 c -16.4,3306.2 -2701.7,5981.1 -6011.8,5981.1 -3310.06,0 -5995.34,-2674.9 -6011.7,-5981.1 H 0 v 6393.7 C 440.133,18428 1045.54,19488.4 1786.45,20437 H 21235.2 c 931.1,-1192.2 1648,-2560.4 2092.3,-4045.8 v -5498.7"
         id="path393" />
    </clipPath>
    <radialGradient
       fx="0"
       fy="0"
       cx="0"
       cy="0"
       r="1"
       gradientUnits="userSpaceOnUse"
       gradientTransform="matrix(12331.9,0,0,-12331.9,11510.8,12852.4)"
       spreadMethod="pad"
       id="radialGradient401">
      <stop
         style="stop-opacity:1;stop-color:#570e26"
         offset="0"
         id="stop397" />
      <stop
         style="stop-opacity:1;stop-color:#160e15"
         offset="1"
         id="stop399" />
    </radialGradient>
    <clipPath
       clipPathUnits="userSpaceOnUse"
       id="clipPath411">
      <path
         d="M 17522.6,10892.5 H 5499.1 c 16.36,3306.2 2701.64,5981.1 6011.7,5981.1 3310.1,0 5995.4,-2674.9 6011.8,-5981.1"
         id="path409" />
    </clipPath>
    <clipPath
       clipPathUnits="userSpaceOnUse"
       id="clipPath417">
      <path
         d="m 9384,12646.6 h 4257.6 v 4233.6 H 9384 Z"
         id="path415" />
    </clipPath>
    <clipPath
       clipPathUnits="userSpaceOnUse"
       id="clipPath429">
      <path
         d="M 17522.6,10892.5 H 5499.1 c 16.36,3306.2 2701.64,5981.1 6011.7,5981.1 3310.1,0 5995.4,-2674.9 6011.8,-5981.1"
         id="path427" />
    </clipPath>
    <clipPath
       clipPathUnits="userSpaceOnUse"
       id="clipPath435">
      <path
         d="m 8673.6,10885 h 724.801 v 5644.8 H 8673.6 Z"
         id="path433" />
    </clipPath>
    <clipPath
       clipPathUnits="userSpaceOnUse"
       id="clipPath447">
      <path
         d="M 17522.6,10892.5 H 5499.1 c 16.36,3306.2 2701.64,5981.1 6011.7,5981.1 3310.1,0 5995.4,-2674.9 6011.8,-5981.1"
         id="path445" />
    </clipPath>
    <clipPath
       clipPathUnits="userSpaceOnUse"
       id="clipPath453">
      <path
         d="m 13627.2,10885 h 720 v 5644.8 h -720 z"
         id="path451" />
    </clipPath>
    <clipPath
       clipPathUnits="userSpaceOnUse"
       id="clipPath465">
      <path
         d="M 17522.6,10892.5 H 5499.1 c 16.36,3306.2 2701.64,5981.1 6011.7,5981.1 3310.1,0 5995.4,-2674.9 6011.8,-5981.1"
         id="path463" />
    </clipPath>
    <clipPath
       clipPathUnits="userSpaceOnUse"
       id="clipPath471">
      <path
         d="m 7968,10885 h 720 v 5294.4 h -720 z"
         id="path469" />
    </clipPath>
    <clipPath
       clipPathUnits="userSpaceOnUse"
       id="clipPath483">
      <path
         d="M 17522.6,10892.5 H 5499.1 c 16.36,3306.2 2701.64,5981.1 6011.7,5981.1 3310.1,0 5995.4,-2674.9 6011.8,-5981.1"
         id="path481" />
    </clipPath>
    <clipPath
       clipPathUnits="userSpaceOnUse"
       id="clipPath489">
      <path
         d="m 14332.8,10885 h 720 v 5294.4 h -720 z"
         id="path487" />
    </clipPath>
    <clipPath
       clipPathUnits="userSpaceOnUse"
       id="clipPath501">
      <path
         d="M 17522.6,10892.5 H 5499.1 c 16.36,3306.2 2701.64,5981.1 6011.7,5981.1 3310.1,0 5995.4,-2674.9 6011.8,-5981.1"
         id="path499" />
    </clipPath>
    <clipPath
       clipPathUnits="userSpaceOnUse"
       id="clipPath507">
      <path
         d="m 7612.8,10885 h 369.598 v 4939.2 H 7612.8 Z"
         id="path505" />
    </clipPath>
    <clipPath
       clipPathUnits="userSpaceOnUse"
       id="clipPath519">
      <path
         d="M 17522.6,10892.5 H 5499.1 c 16.36,3306.2 2701.64,5981.1 6011.7,5981.1 3310.1,0 5995.4,-2674.9 6011.8,-5981.1"
         id="path517" />
    </clipPath>
    <clipPath
       clipPathUnits="userSpaceOnUse"
       id="clipPath525">
      <path
         d="m 15038.4,10885 h 369.602 v 4939.2 H 15038.4 Z"
         id="path523" />
    </clipPath>
    <clipPath
       clipPathUnits="userSpaceOnUse"
       id="clipPath537">
      <path
         d="M 17522.6,10892.5 H 5499.1 c 16.36,3306.2 2701.64,5981.1 6011.7,5981.1 3310.1,0 5995.4,-2674.9 6011.8,-5981.1"
         id="path535" />
    </clipPath>
    <clipPath
       clipPathUnits="userSpaceOnUse"
       id="clipPath543">
      <path
         d="m 6907.2,10885 h 720 v 4588.8 h -720 z"
         id="path541" />
    </clipPath>
    <clipPath
       clipPathUnits="userSpaceOnUse"
       id="clipPath555">
      <path
         d="M 17522.6,10892.5 H 5499.1 c 16.36,3306.2 2701.64,5981.1 6011.7,5981.1 3310.1,0 5995.4,-2674.9 6011.8,-5981.1"
         id="path553" />
    </clipPath>
    <clipPath
       clipPathUnits="userSpaceOnUse"
       id="clipPath561">
      <path
         d="m 15393.6,10885 h 720 v 4588.8 h -720 z"
         id="path559" />
    </clipPath>
    <clipPath
       clipPathUnits="userSpaceOnUse"
       id="clipPath573">
      <path
         d="M 17522.6,10892.5 H 5499.1 c 16.36,3306.2 2701.64,5981.1 6011.7,5981.1 3310.1,0 5995.4,-2674.9 6011.8,-5981.1"
         id="path571" />
    </clipPath>
    <clipPath
       clipPathUnits="userSpaceOnUse"
       id="clipPath579">
      <path
         d="m 6552,10885 h 369.602 v 3883.2 H 6552 Z"
         id="path577" />
    </clipPath>
    <clipPath
       clipPathUnits="userSpaceOnUse"
       id="clipPath591">
      <path
         d="M 17522.6,10892.5 H 5499.1 c 16.36,3306.2 2701.64,5981.1 6011.7,5981.1 3310.1,0 5995.4,-2674.9 6011.8,-5981.1"
         id="path589" />
    </clipPath>
    <clipPath
       clipPathUnits="userSpaceOnUse"
       id="clipPath597">
      <path
         d="m 16099.2,10885 h 369.602 v 3883.2 H 16099.2 Z"
         id="path595" />
    </clipPath>
    <clipPath
       clipPathUnits="userSpaceOnUse"
       id="clipPath609">
      <path
         d="M 17522.6,10892.5 H 5499.1 c 16.36,3306.2 2701.64,5981.1 6011.7,5981.1 3310.1,0 5995.4,-2674.9 6011.8,-5981.1"
         id="path607" />
    </clipPath>
    <clipPath
       clipPathUnits="userSpaceOnUse"
       id="clipPath615">
      <path
         d="m 6196.8,10885 h 369.602 v 3532.8 H 6196.8 Z"
         id="path613" />
    </clipPath>
    <clipPath
       clipPathUnits="userSpaceOnUse"
       id="clipPath627">
      <path
         d="M 17522.6,10892.5 H 5499.1 c 16.36,3306.2 2701.64,5981.1 6011.7,5981.1 3310.1,0 5995.4,-2674.9 6011.8,-5981.1"
         id="path625" />
    </clipPath>
    <clipPath
       clipPathUnits="userSpaceOnUse"
       id="clipPath633">
      <path
         d="m 16454.4,10885 h 369.602 v 3532.8 H 16454.4 Z"
         id="path631" />
    </clipPath>
    <clipPath
       clipPathUnits="userSpaceOnUse"
       id="clipPath645">
      <path
         d="M 17522.6,10892.5 H 5499.1 c 16.36,3306.2 2701.64,5981.1 6011.7,5981.1 3310.1,0 5995.4,-2674.9 6011.8,-5981.1"
         id="path643" />
    </clipPath>
    <clipPath
       clipPathUnits="userSpaceOnUse"
       id="clipPath651">
      <path
         d="m 5846.4,10885 h 364.797 v 2827.2 H 5846.4 Z"
         id="path649" />
    </clipPath>
    <clipPath
       clipPathUnits="userSpaceOnUse"
       id="clipPath663">
      <path
         d="M 17522.6,10892.5 H 5499.1 c 16.36,3306.2 2701.64,5981.1 6011.7,5981.1 3310.1,0 5995.4,-2674.9 6011.8,-5981.1"
         id="path661" />
    </clipPath>
    <clipPath
       clipPathUnits="userSpaceOnUse"
       id="clipPath669">
      <path
         d="m 16809.6,10885 h 364.797 v 2827.2 H 16809.6 Z"
         id="path667" />
    </clipPath>
    <clipPath
       clipPathUnits="userSpaceOnUse"
       id="clipPath681">
      <path
         d="M 17522.6,10892.5 H 5499.1 c 16.36,3306.2 2701.64,5981.1 6011.7,5981.1 3310.1,0 5995.4,-2674.9 6011.8,-5981.1"
         id="path679" />
    </clipPath>
    <clipPath
       clipPathUnits="userSpaceOnUse"
       id="clipPath687">
      <path
         d="m 5491.2,10885 h 369.602 v 2126.4 H 5491.2 Z"
         id="path685" />
    </clipPath>
    <clipPath
       clipPathUnits="userSpaceOnUse"
       id="clipPath699">
      <path
         d="M 17522.6,10892.5 H 5499.1 c 16.36,3306.2 2701.64,5981.1 6011.7,5981.1 3310.1,0 5995.4,-2674.9 6011.8,-5981.1"
         id="path697" />
    </clipPath>
    <clipPath
       clipPathUnits="userSpaceOnUse"
       id="clipPath705">
      <path
         d="m 17160,10885 h 369.602 v 2126.4 H 17160 Z"
         id="path703" />
    </clipPath>
    <clipPath
       clipPathUnits="userSpaceOnUse"
       id="clipPath717">
      <path
         d="M 17522.6,10892.5 H 5499.1 c 16.36,3306.2 2701.64,5981.1 6011.7,5981.1 3310.1,0 5995.4,-2674.9 6011.8,-5981.1"
         id="path715" />
    </clipPath>
    <clipPath
       clipPathUnits="userSpaceOnUse"
       id="clipPath723">
      <path
         d="m 9384,10885 h 4257.6 v 1776 H 9384 Z"
         id="path721" />
    </clipPath>
    <clipPath
       clipPathUnits="userSpaceOnUse"
       id="clipPath735">
      <path
         d="m 14705.2,9695.9 c -0.7,13.5 -346.1,24.3 -771.6,24.3 -425.4,0 -769.8,-10.8 -769.1,-24.3 0.7,-13.4 346.1,-24.2 771.6,-24.2 425.4,0 769.8,10.8 769.1,24.2 z M 12747.1,6992.6 c 0.7,-13.4 481,-24.3 1072.7,-24.3 591.7,0 1070.8,10.9 1070.1,24.3 -0.6,13.4 -480.9,24.3 -1072.6,24.3 -591.7,0 -1070.8,-10.9 -1070.2,-24.3 z M 13013,4936 c -1.2,22.7 -410.8,41.2 -914.9,41.2 -504.1,0 -911.8,-18.5 -910.7,-41.2 1.2,-22.8 410.8,-41.3 914.9,-41.3 504.1,0 911.9,18.5 910.7,41.3 z m -1557.5,1303.9 c 455.4,0 824,10.8 823.3,24.2 -0.7,13.4 -370.4,24.3 -825.7,24.3 -455.4,0 -823.9,-10.9 -823.3,-24.3 0.7,-13.4 370.4,-24.2 825.7,-24.2 z m -1129,3239.2 c 82.7,-11.1 203.6,-18.1 338,-18.1 247.5,0 447,23.7 445.5,53 -1.5,29.2 -203.4,53 -450.9,53 -134.4,0 -254.6,-7.1 -336.2,-18.1 -82.7,11 -203.6,18.1 -338.06,18.1 -247.5,0 -446.92,-23.8 -445.43,-53 1.5,-29.3 203.35,-53 450.85,-53 134.44,0 254.64,7 336.24,18.1 z m 78,-1525.7 c -0.8,14.7 -361.3,26.5 -805.33,26.5 -444.02,0 -803.36,-11.8 -802.61,-26.5 0.74,-14.6 361.3,-26.5 805.32,-26.5 444.02,0 803.32,11.9 802.62,26.5 z M 8285.82,9882.3 c -23.18,11.2 -57.09,11.2 -79.71,11.2 -13.37,0 -26.74,0 -40.11,0 14.89,-0.7 29.82,-1.3 44.8,-1.8 10.55,-1 21.23,-1.8 30.77,-3 10.34,-6.4 32.95,-6.4 44.25,-6.4 z m 8825.88,510.1 c 18.3,-55.4 78.3,-45.4 128.3,-65.4 -350,-90 -750,-20 -1070,-210 -20,-10 30,-60 71.4,-64.3 7,-2.3 14.4,-4.4 21.8,-6.4 82,-21.5 177.3,-23.8 257.7,-48.3 4.2,-1.4 8.5,-2.8 12.7,-4.2 105.5,-35.7 205.4,-77.9 273.4,-147.8 121.1,-123.1 -95.1,-199.2 -208.5,-262.3 -10.3,-5.7 -19.8,-11.3 -28.1,-16.8 -754.1,-268.3 -1575,-279.5 -2366.3,-425.2 l 12,-11.2 c -200.8,-89.7 -445.6,11.2 -622.4,-100.9 256.2,-100.9 616.2,0 775.9,-224.2 25.7,-56 -82.6,-168.1 -158,-240.4 -8.8,-7.2 -17,-14.3 -24.8,-21.6 -7.7,-7.3 -14.8,-14.7 -21.4,-22.2 -17.4,-19.9 -30.3,-40.5 -35,-61.7 17.7,-31.5 38.3,-60.3 61.3,-87 23.4,-26.6 49.4,-51 79.4,-73.6 134.2,-79.5 280.4,-129 431.3,-168.3 37.7,-9.9 75.7,-19.1 113.9,-28 12.1,-4.3 24.7,-8.3 37.1,-12.1 159.9,-47.3 320.3,-58.5 472.6,-137 -281.2,-302.6 -846,-190.5 -1262.4,-302.6 -123.8,-33.6 -260.2,-44.8 -370.8,-112.1 751.4,-190.6 1644.7,-33.6 2302.7,-548.9 3.5,-11.2 6.6,-22.3 9.1,-33.1 2.6,-10.8 4.7,-21.4 6.2,-31.7 8,-156.6 -243.2,-145.5 -271,-268.6 -9.7,-33.5 116.2,-44.7 153.8,-111.9 -18.5,-28 -39.8,-53.3 -63.5,-76.4 -156.3,-152.8 -414.4,-207.7 -637.4,-274.9 -13.1,-3.9 -26.1,-7.9 -38.9,-12 -610.6,-185 -1206.9,-330.5 -1860.8,-464.8 -56.3,-11.2 -112.7,-22.4 -144.6,-67.2 14.4,-6 28.9,-11.9 43.4,-17.6 14.7,-5.7 29.4,-11.2 44.2,-16.5 263.4,-58.2 524.1,-98.5 788,-138.3 14.7,-2.2 29.4,-4.4 44.1,-6.6 499.8,-94.8 981.8,-150.9 1475.3,-206.9 -284,-246.6 -745,-156.9 -1077.6,-347.5 294.5,-179.3 644.7,-112.1 951.1,-302.6 0.6,-11.2 36,-33.7 25.1,-44.9 -230.4,-179.3 -543.1,-89.6 -812.3,-179.3 -22.2,-11.2 -43.9,-33.6 -70.7,-41.4 -12.6,-7.3 -24.7,-15.1 -36.5,-23.3 -141.7,-98.3 -229.2,-259.1 -234.3,-427.9 -14,-30.5 -34.8,-54.7 -59.5,-74.3 -49.6,-39.1 -115,-59.6 -194.6,-71.6 -24.9,-2.5 -49.6,-4.9 -73.9,-7.3 -24.3,-2.5 -48.3,-5 -72.1,-7.8 -77.1,-22.3 -163,-38.9 -252.5,-54 -14.9,-2.5 -29.9,-5 -45,-7.4 -150,-23 -313.3,-68.5 -462.4,-138.4 -13.6,-6.4 -27,-13 -39.4,-20.5 -133.3,-78.9 -100.7,-269.4 17.4,-347.9 119.2,-100.9 288.7,-67.2 430.8,-168.1 11.9,-11.2 24.5,-33.6 25.1,-44.9 -8.6,-56 -65.1,-67.2 -109.6,-89.6 -379.9,-157 -1028,22.4 -1132.1,-491.9 -0.7,-12.5 -1.9,-24.8 -3.8,-37 -15.5,-96.8 -82.3,-180.4 -185.9,-213.4 -27.6,-18.3 -52.6,-38.7 -75.4,-60.9 -182.5,-177.7 -226,-467.8 -398.2,-664.7 -21.7,-22.4 -67.2,-22.4 -91.2,0 -227.3,212.6 -255.3,537.1 -506.4,736.2 -41.1,15.1 -81.9,23 -122.6,31.3 -37.7,7.7 -75.4,15.9 -113,24.5 -30,6.2 -59,13 -87.4,20.1 -28.3,7.2 -56.1,14.7 -83.3,22.5 -56.1,24.7 -141.1,37.1 -209.9,55.9 -45.8,12.5 -84.4,27.8 -102.5,51.6 -9,11.9 -12.9,25.9 -10,42.7 -6.8,303.7 428.5,270.1 476.4,449.4 88.3,280.3 -572.9,269.1 -823.94,493.2 -48.51,56.1 41.04,89.7 85.44,94 14.1,4.6 28.4,8.9 42.8,13.1 503.6,146.7 1057,87 1529.1,293.2 -774.7,223.8 -1587.5,78.3 -2377.62,230.7 -13.96,3.4 -27.89,7 -41.79,10.7 -69.48,18.7 -138.06,41.8 -205.33,71.9 102.93,75.6 240.57,99.2 379.36,115.7 15.47,1.8 30.96,3.6 46.47,5.3 148.28,13.3 318.58,24.5 435.47,129.4 9.09,8.5 17.69,17.8 25.72,27.8 16.04,19.9 29.75,42.7 40.75,68.8 20.5,44.7 -76.93,167.8 -187.34,171.8 -15.1,3.4 -30.17,6.9 -45.18,10.5 -113.11,27.4 -222.51,63.2 -314.2,129.7 97.4,-4.3 194.58,-4.4 290.9,12.5 -104.24,33.6 -219.3,56 -307.57,0 5.48,-4.3 11.05,-8.5 16.67,-12.5 -96.7,4.2 -193.6,12.5 -290.07,12.5 415.77,111.9 870.86,123.1 1259.86,313.3 -219.3,56 -446.58,44.8 -657.5,138.3 -14.35,2.4 -29.71,4.9 -45.06,7.3 -15.36,2.5 -30.69,4.9 -46.01,7.4 -15.33,2.4 -30.64,4.9 -46.16,7.3 -137.74,30 -275.01,41.2 -409.32,72.4 -15.05,3 -30.08,6 -45.11,9.1 -195.29,40.5 -388.46,90 -579.88,158.2 -8.7,5.7 -14.82,14.1 -15.39,25.3 50.66,123.1 208.43,156.7 318.92,223.8 221.53,123.1 472.72,111.9 695.41,212.7 -27.35,33.5 -60.46,54.5 -96.67,69.4 -12.07,5 -24.48,9.2 -36.83,13.1 -263.55,107.7 -540.38,174.9 -826.89,208.4 68.87,212.7 381.02,123.1 545.6,246.2 10.82,11.2 21.07,33.6 20.5,44.8 -234.7,134.3 -505.24,78.3 -728.55,212.6 141.8,123.1 374.21,33.6 504.61,156.7 43.28,44.8 38.71,134.3 114.91,177.3 10.87,5.2 22.49,9.6 34.85,12.9 90.56,11.2 169.73,22.4 255.91,25.6 27.8,1.8 55.83,4.3 84.12,8 67.21,22.4 124.17,22.4 178.84,67.2 -12.12,5.5 -24.3,10.9 -36.55,16.3 -12.24,5.3 -24.41,10.6 -36.19,15.8 -125.5,57.4 -265.06,113.3 -402.33,124.5 -516.06,67.2 -1027.54,44.8 -1535.65,179.1 234.08,100.7 497.24,78.3 718.2,212.6 -213.63,167.9 -539.98,89.6 -774.69,223.8 100.24,44.8 337.75,78.4 263.11,201.5 -37.61,67.1 -187.99,111.9 -302.01,117.3 -13.32,2.7 -26.62,5.2 -39.9,7.5 -79.67,13.8 -158.34,20.3 -232,36.5 -13.91,3.6 -27.49,7.6 -40.64,12.3 -52.58,18.8 -98.45,48.4 -131.27,98.3 -8.2,12.5 -15.59,26.2 -22.06,41.4 47.83,78.4 125.53,118.3 217.05,137.6 13.08,2.8 26.43,5.1 40.02,7.1 521.52,0.8 1033.57,12 1574.13,-88.7 506.39,-100.7 975.11,89.5 1472.88,156.7 -185.1,55.9 -377.61,33.5 -561.02,55.9 11.39,0 11.39,0 22.78,0 -407.09,89.5 -853.65,159.2 -1259.4,288.5 -14.49,4.6 -28.93,9.3 -43.7,14.2 -483.67,191.3 -983.95,247.3 -1495.53,303.4 224.57,13.5 448.31,43.3 672.84,57.5 4.78,2.3 9.26,5.5 13.31,9.7 184.74,145.8 513.15,134.5 567.22,403.6 -1.72,33.6 -36.78,56 -75.56,63.8 -8.39,1.1 -16.75,2.3 -25.07,3.5 -91.54,13.2 -178.11,28.2 -244.81,56 88.66,20.5 174.39,16 261.03,11.9 25.72,11.6 51.7,22.2 77.93,31.7 13.38,4.9 26.7,9.5 39.33,13.5 226.43,55 451.96,66.2 676.72,99.9 14.97,1.5 29.3,2.7 43.62,4 171.91,15.3 342.45,37.9 504.76,96.8 -154.98,156.9 -421.71,67.2 -625.74,78.9 -14.73,-0.3 -29.47,-0.6 -44.2,-1 -58.92,-1.4 -117.8,-3.1 -176.68,-4.8 -14.72,-0.4 -29.44,-0.8 -44.16,-1.2 -424.55,-23.1 -856.67,-16 -1282.61,52.3 -8.04,1.3 -16.07,2.6 -24.11,3.9 C 6810,10327 6330,10447 5850,10587 c 90,10 170,50 260,50 420,20 850,-10 1270.4,49.5 7.85,1.9 15.66,4 23.43,6.2 15.54,4.3 30.93,9.1 46.17,14.3 -37.5,18.8 -75.78,33.4 -114.65,45 -7.77,2.4 -15.57,4.6 -23.4,6.6 -131.95,38.4 -271.95,28.4 -410.1,44.3 -8.04,0.4 -16.15,0.9 -24.25,1.3 -8.1,0.5 -16.19,0.9 -24.28,1.4 -53.32,-8.6 -93.32,11.4 -144.41,14.4 -7.89,1.2 -15.81,2.4 -23.71,3.8 -63.2,10.8 -125.2,27.2 -185.2,53.2 530,180 1090,30 1629.02,58.6 7.59,0.4 15.16,0.8 22.72,1.3 8.9,0 17.82,0 26.76,0 8.95,0 17.92,0 26.91,0 897.01,-1 1801.39,-1 2699.19,0 11.6,0 23.3,0 35,0 1640.3,0 3380.2,0 4549.7,0 4.3,0 8.5,0 12.7,0 178,0.1 348,0.1 526.8,0 6.7,0 13.6,0 20.4,0 6.7,0 13.5,0 20.2,0 6.8,0 13.5,0 20.5,0 120.1,0.1 250.1,0.1 370,0 4.4,0 9.3,0 14.3,0 158.7,0 275.2,0 341.3,0 4.1,0 8.1,0 11.9,0 22.6,0.1 52.6,10.1 62.6,0.1 100,-110 -90,-170 -170.9,-199 -7.5,-3.6 -14.8,-7.1 -22.2,-10.6 -29.8,-13.6 -61.7,-25.5 -94.8,-36.5 -8.3,-2.7 -16.6,-5.4 -25,-8 2.9,-5.9 -7.1,-15.9 -7.1,-15.9 10,-8 21.2,-13.2 33,-16.8 6,-1.8 12,-3.2 18.2,-4.3 24.4,-4.5 46.6,-6.7 67.7,-11.5 5.3,-1.3 10.5,-2.6 15.6,-4.3 15.5,6.9 35.5,-13.1 55.5,-23.1 -110,-30 -230,-40 -350,-60 220,-120 480,-80 714.9,-146.8 -4.7,-2.6 -9.2,-5.2 -13.2,-7.8 z M 7039.96,8814.1 c 86.71,-15 226.6,-24.8 384.05,-24.8 261.15,0 471.47,26.9 469.77,60.2 -1.7,33.2 -214.78,60.1 -475.92,60.1 -157.45,0 -296.34,-9.8 -381.51,-24.8 -86.72,15 -226.6,24.8 -384.06,24.8 -261.14,0 -471.46,-26.9 -469.77,-60.1 1.7,-33.3 214.78,-60.2 475.93,-60.2 157.45,0 296.34,9.8 381.51,24.8 z m -473.42,-694.6 c 1.89,-37 203.04,-67 449.28,-67 246.25,0 444.33,30 442.44,67 -1.89,37 -203.05,67 -449.29,67 -246.24,0 -444.32,-30 -442.43,-67 z m 419.81,-1339.6 c -298.45,0 -540.14,-5 -539.82,-11.1 0.31,-6.2 242.51,-11.2 540.97,-11.2 298.45,0 540.14,5 539.82,11.2 -0.31,6.1 -242.52,11.1 -540.97,11.1 z M 8047.86,5395.8 c -248.71,0 -448.03,-45 -445.19,-100.5 2.83,-55.5 206.75,-100.5 455.46,-100.5 248.72,0 448.03,45 445.2,100.5 -2.84,55.5 -206.76,100.5 -455.47,100.5 z M 9841.31,3609.7 c -144.19,0 -259.02,-39.9 -256.51,-89.2 2.52,-49.2 121.45,-89.2 265.63,-89.2 144.18,0 259.07,40 256.47,89.2 -2.5,49.3 -121.41,89.2 -265.59,89.2 z m 5715.29,1285 c -99.7,0 -179.4,-22.3 -178,-49.9 1.4,-27.6 83.4,-50 183.1,-50 99.7,0 179.4,22.4 178,50 -1.4,27.6 -83.4,49.9 -183.1,49.9 z m -224.8,865.8 c -234.9,0 -423.5,-37.3 -421.1,-83.3 2.3,-46 194.7,-83.2 429.6,-83.2 234.9,0 423.5,37.2 421.1,83.2 -2.3,46 -194.7,83.3 -429.6,83.3 z m 1462.9,2272.4 c -134.5,0 -254.6,-7 -336.2,-18.1 -82.7,11.1 -203.6,18.1 -338.1,18.1 -247.5,0 -446.9,-23.7 -445.4,-53 1.5,-29.2 203.3,-53 450.8,-53 134.5,0 254.7,7 336.3,18.1 82.7,-11.1 203.6,-18.1 338,-18.1 247.5,0 446.9,23.8 445.4,53 -1.5,29.3 -203.3,53 -450.8,53 z M 16376,7457.7 c -247.5,0 -447,-23.7 -445.5,-53 1.5,-29.2 203.4,-53 450.9,-53 247.5,0 446.9,23.8 445.4,53 -1.5,29.3 -203.3,53 -450.8,53 z m -665.9,146.8 c -61.6,0 -111,-9.1 -110.5,-20.4 0.6,-11.3 51,-20.4 112.6,-20.4 61.6,0 111.1,9.1 110.5,20.4 -0.6,11.3 -51,20.4 -112.6,20.4 z m -758,-40.8 c 1.2,-22.5 118.1,-40.7 261.1,-40.7 143.1,0 258.1,18.2 256.9,40.7 -1.1,22.5 -118,40.8 -261.1,40.8 -143,0 -258,-18.3 -256.9,-40.8 z m 1139.6,1030.9 c 0.6,-11 59.9,-19.9 132.6,-19.9 72.6,0 131.1,8.9 130.5,19.9 -0.5,11.1 -59.9,20 -132.6,20 -72.6,0 -131.1,-8.9 -130.5,-20 z m -223,20 c -1.2,22 -146.1,39.9 -323.8,39.9 -177.7,0 -320.8,-17.9 -319.7,-39.9 1.2,-22 146.1,-39.9 323.8,-39.9 177.7,0 320.8,17.9 319.7,39.9 z m -1078.8,334.9 c -1.1,22 311.2,39.9 697.7,39.9 386.4,0 700.6,-17.9 701.7,-39.9 1.2,-22 -311.2,-39.9 -697.6,-39.9 -386.5,0 -700.7,17.9 -701.8,39.9 z"
         id="path733" />
    </clipPath>
    <linearGradient
       x1="0"
       y1="0"
       x2="1"
       y2="0"
       gradientUnits="userSpaceOnUse"
       gradientTransform="matrix(-490.211,9587.22,9669.2,0,12009.1,1380)"
       spreadMethod="pad"
       id="linearGradient743">
      <stop
         style="stop-opacity:1;stop-color:#ee1690"
         offset="0"
         id="stop737" />
      <stop
         style="stop-opacity:1;stop-color:#ee1690"
         offset="0.22224383"
         id="stop739" />
      <stop
         style="stop-opacity:1;stop-color:#f3f50a"
         offset="1"
         id="stop741" />
    </linearGradient>
    <clipPath
       clipPathUnits="userSpaceOnUse"
       id="clipPath753">
      <path
         d="m 11663.7,16104.1 c -2873.42,0 -5202.8,-2329.4 -5202.8,-5202.8 h 10405.7 c 0,2873.4 -2329.4,5202.8 -5202.9,5202.8 z"
         id="path751" />
    </clipPath>
    <linearGradient
       x1="0"
       y1="0"
       x2="1"
       y2="0"
       gradientUnits="userSpaceOnUse"
       gradientTransform="matrix(0,5202.82,5202.82,0,11663.7,10901.3)"
       spreadMethod="pad"
       id="linearGradient761">
      <stop
         style="stop-opacity:1;stop-color:#f3f50a"
         offset="0"
         id="stop755" />
      <stop
         style="stop-opacity:1;stop-color:#f3f50a"
         offset="0.30873346"
         id="stop757" />
      <stop
         style="stop-opacity:1;stop-color:#ee1690"
         offset="1"
         id="stop759" />
    </linearGradient>
  </defs>
  <sodipodi:namedview
     id="namedview371"
     pagecolor="#505050"
     bordercolor="#eeeeee"
     borderopacity="1"
     inkscape:showpageshadow="0"
     inkscape:pageopacity="0"
     inkscape:pagecheckerboard="0"
     inkscape:deskcolor="#505050"
     showgrid="false"
     inkscape:zoom="0.22334596"
     inkscape:cx="503.70286"
     inkscape:cy="870.84627"
     inkscape:window-width="1440"
     inkscape:window-height="847"
     inkscape:window-x="0"
     inkscape:window-y="25"
     inkscape:window-maximized="1"
     inkscape:current-layer="g377">
    <inkscape:page
       x="0"
       y="0"
       id="page375"
       width="1387.4266"
       height="693.70667" />
  </sodipodi:namedview>
  <g
     id="g377"
     inkscape:groupmode="layer"
     inkscape:label="Page 1"
     transform="matrix(1.3333333,0,0,-1.3333333,-861.45331,2147.2133)"
     style="display:inline">
    <g
       id="g747"
       transform="scale(0.1)">
      <g
         id="g749"
         clip-path="url(#clipPath753)">
        <path
           d="m 11663.7,16104.1 c -2873.42,0 -5202.8,-2329.4 -5202.8,-5202.8 h 10405.7 c 0,2873.4 -2329.4,5202.8 -5202.9,5202.8"
           style="fill:url(#linearGradient761);fill-opacity:1;fill-rule:nonzero;stroke:none"
           id="path763" />
      </g>
    </g>
  </g>
  <g
     inkscape:groupmode="layer"
     id="layer2"
     inkscape:label="Page 3"
     style="display:none"
     transform="translate(-861.45331,-577.72002)">
    <g
       id="g1510"
       transform="matrix(1.3333333,0,0,-1.3333333,0,2724.9333)">
      <path
         d="m 927.044,394.99 c 12.414,0.36 16.312,0.42 16.749,0.5 4.698,0.76 -4.94,1.58 33.876,2.2 40.721,0.65 87.141,1.02 138.591,1.13 92.93,0.22 189.55,-1 218.22,-2.68 31.33,-1.83 -3.72,-3.58 -94.35,-4.48 -32.85,-0.32 -70.96,-0.46 -109.51,-0.7 -6.15,-0.26 -16.72,-0.54 -19.31,-0.84 -12.13,-1.41 -60.46,-2.26 -124.968,-2.82 -25.55,-0.22 -56.111,-0.28 -84.776,-0.33 -16.115,-0.02 -32.934,0.15 -49.587,0.22 -108.692,0.45 -134.847,0.99 -155.358,2.92 -18.75,1.77 11.48,3.16 88.108,4.17 23.232,0.31 54.692,0.42 83.202,0.56 19.763,0.1 40.926,0.11 59.113,0.15"
         style="fill:#160e15;fill-opacity:1;fill-rule:nonzero;stroke:none;stroke-width:0.1"
         id="path765" />
      <path
         d="m 1465.4,508.25 c -41.65,1.28 -94.97,2.4 -115.24,3.7 -19.32,1.23 -4.16,2.66 -4.16,4.05 10.47,0.23 20.39,0.48 32.65,0.69 41.65,0.71 57.83,2.18 133.8,1.88 96.99,-0.38 198.88,-0.53 262.81,-2.4 53.48,-1.57 63.48,-3.06 25.5,-4.72 -13.32,-0.58 -28.22,-1.15 -43.69,-1.78 -28.52,-0.26 -59.66,-0.51 -88.81,-0.82 -34.46,-0.36 -65.21,-0.56 -107.37,-0.25 -22.05,0.16 -54.99,-0.18 -95.49,-0.35"
         style="fill:#160e15;fill-opacity:1;fill-rule:nonzero;stroke:none;stroke-width:0.1"
         id="path767" />
      <path
         d="m 937.185,553.15 c -75.776,0.35 -102.575,1.27 -126.395,2.22 -40.42,1.6 -15.801,3.78 52.517,4.81 75.685,1.13 184.193,1.25 264.073,0.28 86.4,-1.05 120.42,-4.07 63.53,-5.84 -17.31,-0.54 -41.89,-1 -65.51,-1.55 12.58,-0.58 32.3,-1.19 39.14,-1.85 14.88,-1.43 -5.84,-1.93 -69.51,-2.76 -71.39,-0.93 -166.331,0.17 -185.248,1.39 -16.296,1.06 -7.261,2.04 27.403,3.3"
         style="fill:#160e15;fill-opacity:1;fill-rule:nonzero;stroke:none;stroke-width:0.1"
         id="path769" />
      <path
         d="m 1337.03,783.77 c 3.47,1.19 126.58,2.14 237.39,2.03 110.07,-0.1 206.15,-1 213.98,-2.01 1.16,-0.15 -1.88,-0.32 -7.16,-0.46 -24.57,-0.67 -77.28,-1.1 -145,-1.4 -7.59,-0.03 -16,-0.06 -24.32,-0.07 -83.03,-0.13 -198.43,0.33 -239.39,1.02 -19.77,0.33 -28.8,0.71 -35.5,0.89"
         style="fill:#160e15;fill-opacity:1;fill-rule:nonzero;stroke:none;stroke-width:0.1"
         id="path771" />
      <path
         d="m 1278.82,870.06 c 21.64,-0.28 42.12,-0.53 60.34,-0.79 52.93,-0.77 18.36,-1.88 -66.14,-2.32 -94.33,-0.5 -180.03,-0.25 -264.77,0.18 -22.051,0.11 -40.667,0.28 -60.357,0.43 -84.828,0.64 -83.429,1.62 9.613,2.13 53.914,0.29 115.814,0.52 177.144,0.61 42.35,0.07 89.88,-0.14 144.17,-0.24"
         style="fill:#160e15;fill-opacity:1;fill-rule:nonzero;stroke:none;stroke-width:0.1"
         id="path773" />
      <path
         d="m 948.183,437.73 c 3.725,2.25 78.187,3.68 190.217,3.64 157.69,-0.05 225.95,-1.95 223.29,-4.16 -2.09,-1.74 -81.18,-3.82 -221.58,-3.68 -114.91,0.11 -195.874,1.83 -191.927,4.2"
         style="fill:#160e15;fill-opacity:1;fill-rule:nonzero;stroke:none;stroke-width:0.1"
         id="path775" />
      <path
         d="m 1786.18,541.92 c -1.05,-2.14 -88.24,-3.71 -205.95,-3.71 -98.61,0 -210.38,1.83 -205.05,3.56 5.99,1.94 55.39,4.09 201.47,4.06 123.49,-0.03 210.65,-1.64 209.53,-3.91"
         style="fill:#160e15;fill-opacity:1;fill-rule:nonzero;stroke:none;stroke-width:0.1"
         id="path777" />
      <path
         d="m 1382.59,232.43 c 17.92,0.81 32.5,1.47 48.14,2.17 38.24,0.19 74.71,0.37 106.86,0.53 52.81,-0.2 98.67,-1.25 107.79,-2.25 11.13,-1.22 -40.01,-1.85 -68.85,-2.62 9.32,-0.69 22.26,-1.3 24.98,-1.92 7.6,-1.73 -76.97,-2.98 -158,-2.39 -47.03,0.35 -96.71,0.56 -149.13,0.86 -1.09,0.85 7.89,1.68 -8.3,2.55 -28.72,1.54 -13.55,1.96 69.91,2.81 7.51,0.08 15.17,0.15 26.6,0.26"
         style="fill:#160e15;fill-opacity:1;fill-rule:nonzero;stroke:none;stroke-width:0.1"
         id="path779" />
      <path
         d="m 1164.01,310.77 c -1.63,-0.23 -3.52,-0.39 -3.72,-0.55 -0.74,-0.57 -16.05,-0.91 -46.61,-0.91 -28.33,0 -57.63,0.32 -52.66,0.82 11.15,1.13 -24.12,1.74 -57.41,2.47 -50.656,1.1 -39.491,2.37 -20.145,3.62 4.397,0.28 17.555,0.56 30.445,0.75 62.67,0.93 133.11,1.01 205.76,0.51 71.55,-0.49 107.8,-1.55 117.47,-2.9 8.03,-1.12 -21.67,-2.03 -66.64,-2.7 -29.29,-0.43 -65.84,-0.7 -106.49,-1.11"
         style="fill:#160e15;fill-opacity:1;fill-rule:nonzero;stroke:none;stroke-width:0.1"
         id="path781" />
      <path
         d="m 640.286,625.47 c -17.688,-1.19 -63.046,-1.84 -125.608,-2.05 -69.39,-0.24 -107.208,0.64 -143.002,1.51 2.637,0.53 5.309,1.08 8.179,1.66 53.562,1.42 126.576,1.7 216.333,1.01 15.635,0.28 28.784,0.59 44.925,0.81 50.47,0.71 94.403,0.82 138.844,0.03 34.082,-0.61 66.93,-0.8 111.319,-0.88 59.885,-0.1 81.41,-1.19 47.937,-2.14 -17.245,-0.49 -53.005,-0.8 -77.666,-0.46 -45.985,0.64 -89.051,0.68 -141.276,0.33 -20.826,-0.14 -48.878,0.1 -79.985,0.18"
         style="fill:#160e15;fill-opacity:1;fill-rule:nonzero;stroke:none;stroke-width:0.1"
         id="path783" />
      <path
         d="m 1205.8,874.81 c -92.37,-0.02 -171.52,0.62 -171.26,1.38 0.31,0.96 65.81,1.68 153.54,1.71 102,0.03 182.8,-0.65 186.97,-1.56 4.02,-0.89 -64.89,-1.51 -169.25,-1.53"
         style="fill:#160e15;fill-opacity:1;fill-rule:nonzero;stroke:none;stroke-width:0.1"
         id="path785" />
      <path
         d="m 1315.96,756.6 c 13.2,0.17 29.05,0.4 46.66,0.61 57.24,0.69 83.58,0.77 171.96,0.54 68.61,-0.17 115.41,-0.7 120.57,-1.35 6.41,-0.81 -101.11,-1.58 -193.61,-1.39 -88.91,0.18 -140.91,0.66 -145.58,1.59"
         style="fill:#160e15;fill-opacity:1;fill-rule:nonzero;stroke:none;stroke-width:0.1"
         id="path787" />
      <path
         d="m 1212.86,492.66 c 83.78,-0.01 156.74,-1.39 154.39,-2.91 -2.29,-1.49 -82.69,-3.11 -151.92,-3.06 -78.28,0.04 -178.97,1.78 -174.91,3.01 5.31,1.6 84.86,2.97 172.44,2.96"
         style="fill:#160e15;fill-opacity:1;fill-rule:nonzero;stroke:none;stroke-width:0.1"
         id="path789" />
      <path
         d="m 1359.48,607.91 c 1.54,-1.01 -34.44,-2.05 -85.14,-2.43 -51.99,-0.39 -99.69,-0.32 -139.33,0.5 -8.52,0.18 -16.91,0.36 -25.64,0.53 -25.58,0.51 -68.14,0.91 -57.9,1.73 10.41,0.83 29.33,1.65 52.82,2.38 21.02,0.66 85.05,0.85 128.47,0.57 71.55,-0.47 124.54,-1.84 126.72,-3.28"
         style="fill:#160e15;fill-opacity:1;fill-rule:nonzero;stroke:none;stroke-width:0.1"
         id="path791" />
      <path
         d="m 1311.25,592.15 c 0.65,1.02 20.8,1.7 68.07,1.95 36.7,0.19 75.23,0.36 112.95,0.36 56.3,0 97.66,-0.61 120.87,-1.54 19.05,-0.76 19.22,-1.56 -15.37,-2.23 -14.89,-0.28 -29.48,-0.59 -46.96,-0.82 -53.64,-0.68 -110.71,-0.81 -169.97,-0.24 -58.07,0.56 -68.46,1.57 -69.59,2.52"
         style="fill:#160e15;fill-opacity:1;fill-rule:nonzero;stroke:none;stroke-width:0.1"
         id="path793" />
      <path
         d="m 1166.25,529.28 c -99.62,-0.05 -161.73,1.04 -161.44,2.84 0.14,0.91 92.26,2.54 147.27,2.6 73.58,0.07 141.36,-1.1 142.7,-2.46 1.62,-1.66 -54.04,-2.95 -128.53,-2.98"
         style="fill:#160e15;fill-opacity:1;fill-rule:nonzero;stroke:none;stroke-width:0.1"
         id="path795" />
      <path
         d="m 1407.1,645.62 c 95.16,-0.06 154.03,-1.13 156.25,-2.84 1.65,-1.28 -61.46,-2.3 -138.76,-2.25 -76.24,0.05 -150.24,1.25 -151.02,2.45 -0.99,1.51 58.26,2.68 133.53,2.64"
         style="fill:#160e15;fill-opacity:1;fill-rule:nonzero;stroke:none;stroke-width:0.1"
         id="path797" />
      <path
         d="m 1390.19,351.07 c -9.86,-0.24 -23.13,-0.78 -45.53,-1.06 -25.6,-0.32 -56.79,-0.22 -82.22,0.22 -31.25,0.55 -64.7,1.05 -96.26,1.58 -35.41,0.61 -43.72,1.57 -22.34,2.42 22.17,0.87 65.12,1.37 111.87,1.3 69.09,-0.11 112.47,-0.8 123.33,-2.05 6.15,-0.7 6.81,-1.42 11.15,-2.41"
         style="fill:#160e15;fill-opacity:1;fill-rule:nonzero;stroke:none;stroke-width:0.1"
         id="path799" />
      <path
         d="m 1380.13,932.71 c 80.36,-0.05 142.06,-0.71 134.67,-1.45 -5.92,-0.59 -70.12,-1.11 -131.13,-1.07 -70.91,0.05 -132.04,0.74 -124.41,1.41 8.57,0.75 51.68,1.15 120.87,1.11"
         style="fill:#160e15;fill-opacity:1;fill-rule:nonzero;stroke:none;stroke-width:0.1"
         id="path801" />
      <path
         d="m 1843.98,742.12 c 0.88,-0.65 -56.47,-1.17 -129.96,-1.17 -74.73,0 -134.02,0.49 -138.06,1.13 -4.59,0.73 54,1.32 130.45,1.31 78.96,-0.02 136.6,-0.55 137.57,-1.27"
         style="fill:#160e15;fill-opacity:1;fill-rule:nonzero;stroke:none;stroke-width:0.1"
         id="path803" />
      <path
         d="m 1710.96,721.94 c 66.8,-0.05 129.73,-0.68 126.11,-1.26 -3.67,-0.59 -66.45,-1.11 -128.49,-1.07 -78.14,0.06 -135.74,0.67 -127.78,1.35 7.94,0.68 56.03,1.04 130.16,0.98"
         style="fill:#160e15;fill-opacity:1;fill-rule:nonzero;stroke:none;stroke-width:0.1"
         id="path805" />
      <path
         d="m 962.657,371.98 c 40.573,-0.02 77.813,-0.1 103.113,-0.77 49.59,-1.31 31.18,-2.63 -46.04,-3.33 -36.25,-0.32 -73.517,-0.38 -111.268,-0.19 -66.395,0.32 -98.726,1.74 -64.26,2.83 26.855,0.84 60.32,1.54 118.455,1.46"
         style="fill:#160e15;fill-opacity:1;fill-rule:nonzero;stroke:none;stroke-width:0.1"
         id="path807" />
      <path
         d="m 1295.46,501.28 c 0.49,-1.28 -50.49,-2.19 -123.86,-2.22 -63.6,-0.03 -114.59,1.08 -112.25,2.43 2.14,1.25 45.73,1.96 117.46,2.03 82.64,0.07 116.76,-1.03 118.65,-2.24"
         style="fill:#160e15;fill-opacity:1;fill-rule:nonzero;stroke:none;stroke-width:0.1"
         id="path809" />
      <path
         d="m 1164.61,704.37 c 82.7,0.02 152.85,-2.06 117.3,-3.47 -17.71,-0.71 -66.23,-1.24 -105.33,-1.03 -89.8,0.48 -133.44,1.54 -115.08,3.4 6.39,0.64 50.9,1.09 103.11,1.1"
         style="fill:#160e15;fill-opacity:1;fill-rule:nonzero;stroke:none;stroke-width:0.1"
         id="path811" />
      <path
         d="m 1623.76,681.46 c 75.46,-0.01 129.15,-0.92 126.61,-2.14 -2.11,-1.03 -62.41,-1.93 -127.16,-1.9 -61.4,0.03 -128.05,1.13 -122.45,2.03 7.24,1.16 59.82,2.02 123,2.01"
         style="fill:#160e15;fill-opacity:1;fill-rule:nonzero;stroke:none;stroke-width:0.1"
         id="path813" />
      <path
         d="m 1415.63,866.19 c -74.61,0.08 -121.86,0.58 -118.74,1.26 2.05,0.46 64.69,0.86 120.71,0.79 73.91,-0.09 128.19,-0.67 119.52,-1.27 -7.03,-0.48 -62.83,-0.84 -121.49,-0.78"
         style="fill:#160e15;fill-opacity:1;fill-rule:nonzero;stroke:none;stroke-width:0.1"
         id="path815" />
      <path
         d="m 1905.31,421.48 c -11.26,-0.26 -25.08,-0.82 -48.24,-1.04 -40.62,-0.39 -84.88,-0.61 -124.05,-1.12 -34.35,-0.45 -84.98,0.06 -103.22,0.86 -16.14,0.71 -2.89,1.44 33.72,1.84 36.26,0.39 72.43,0.79 109.03,1.18 65.54,0.69 132.97,-0.06 132.76,-1.72"
         style="fill:#160e15;fill-opacity:1;fill-rule:nonzero;stroke:none;stroke-width:0.1"
         id="path817" />
      <path
         d="m 914.479,721.49 c -54.647,-0.02 -116.65,0.49 -121.374,1.01 -5.456,0.59 37.508,1.05 103.126,1.09 68.414,0.05 124.239,-0.41 127.029,-1.03 2.64,-0.59 -42.381,-1.03 -108.781,-1.07"
         style="fill:#160e15;fill-opacity:1;fill-rule:nonzero;stroke:none;stroke-width:0.1"
         id="path819" />
      <path
         d="m 1479.96,738.14 c -74.52,0.11 -119.71,1.02 -115.92,2.35 3.04,1.06 62.38,1.99 125.19,1.97 53.2,-0.02 109.06,-1.21 108.67,-2.31 -0.41,-1.12 -57.17,-2.09 -117.94,-2.01"
         style="fill:#160e15;fill-opacity:1;fill-rule:nonzero;stroke:none;stroke-width:0.1"
         id="path821" />
      <path
         d="m 1529.87,916.88 c 54.26,0.06 88.01,-0.17 109.03,-0.61 21.92,-0.46 16.57,-0.81 -20.74,-1.17 -41.36,-0.41 -140.81,-0.28 -176.49,0.24 -23.44,0.34 -30.33,0.71 -7.44,1.1 21.26,0.36 55.46,0.44 95.64,0.44"
         style="fill:#160e15;fill-opacity:1;fill-rule:nonzero;stroke:none;stroke-width:0.1"
         id="path823" />
      <path
         d="m 1595.9,700.4 c 71.59,0 141.33,-0.59 136.73,-1.15 -3.67,-0.45 -53.51,-0.89 -101.85,-0.9 -62.81,-0.01 -126.66,0.54 -128.41,1.1 -1.47,0.48 45.53,0.95 93.53,0.95"
         style="fill:#160e15;fill-opacity:1;fill-rule:nonzero;stroke:none;stroke-width:0.1"
         id="path825" />
      <path
         d="m 668.947,1033.36 c -67.406,-0.01 -119.068,0.29 -120.883,0.66 -0.235,0.05 2.069,0.1 5.22,0.15 20.181,0.29 81.853,0.45 139.638,0.36 57.166,-0.08 92.077,-0.33 90.37,-0.64 -1.001,-0.18 -27.065,-0.41 -56.655,-0.47 -20.153,-0.04 -41.71,-0.05 -57.69,-0.06"
         style="fill:#160e15;fill-opacity:1;fill-rule:nonzero;stroke:none;stroke-width:0.1"
         id="path827" />
      <path
         d="m 849.916,403.61 c 1.502,1.04 51.083,1.82 112.732,1.77 50.252,-0.05 100.922,-1.13 99.792,-2.14 -1.2,-1.07 -49.23,-1.87 -110.247,-1.83 -68.746,0.04 -104.286,0.8 -102.277,2.2"
         style="fill:#160e15;fill-opacity:1;fill-rule:nonzero;stroke:none;stroke-width:0.1"
         id="path829" />
      <path
         d="m 895.73,602.4 c -60.422,0.01 -98.543,0.71 -97.251,1.77 1.581,1.3 45.456,2.06 116.463,2 49.861,-0.03 90.648,-0.91 91.448,-1.97 0.85,-1.13 -41.532,-1.82 -110.66,-1.8"
         style="fill:#160e15;fill-opacity:1;fill-rule:nonzero;stroke:none;stroke-width:0.1"
         id="path831" />
      <path
         d="m 1393.36,834.64 c 29.74,0.32 45.52,0.56 68.07,0.72 43.32,0.3 97.96,0.19 133.67,-0.23 32.29,-0.39 20.58,-1.1 -23.99,-1.35 -31.74,-0.18 -67.87,-0.17 -95.59,0.03 -28.37,0.21 -49.76,0.5 -82.16,0.83"
         style="fill:#160e15;fill-opacity:1;fill-rule:nonzero;stroke:none;stroke-width:0.1"
         id="path833" />
      <path
         d="m 1253.34,613.93 c 2.87,0.9 13.96,1.77 66.93,2.06 51.95,0.3 89.78,-0.2 121.63,-1.08 -2.24,-0.69 -3.18,-1.46 -7.9,-2.23 -3.11,-0.5 -19.28,-0.93 -47.92,-0.95 -18.96,-0.01 -43.74,0.12 -56.26,0.37 -28.49,0.55 -51.03,1.2 -76.48,1.83"
         style="fill:#160e15;fill-opacity:1;fill-rule:nonzero;stroke:none;stroke-width:0.1"
         id="path835" />
      <path
         d="m 1376.74,327.43 c 4.79,-0.98 -10.41,-1.61 -38.03,-2.15 -29.32,-0.58 -69.87,-0.6 -100.91,-0.04 -51.26,0.92 -49.74,2.53 3.19,3.38 47.92,0.77 114.33,0.42 131.22,-0.71 3.42,-0.22 4.42,-0.46 4.53,-0.48"
         style="fill:#160e15;fill-opacity:1;fill-rule:nonzero;stroke:none;stroke-width:0.1"
         id="path837" />
      <path
         d="m 742.399,479.8 c -58.165,-0.02 -97.169,0.66 -97.353,1.71 -0.192,1.11 46.47,2 102.584,1.97 46.74,-0.03 92.889,-0.99 92.655,-1.93 -0.255,-1.02 -39.407,-1.72 -97.886,-1.75"
         style="fill:#160e15;fill-opacity:1;fill-rule:nonzero;stroke:none;stroke-width:0.1"
         id="path839" />
      <path
         d="m 1293.27,850.09 c -1.59,-0.48 -47.31,-0.89 -97.89,-0.89 -52.15,0.01 -97.66,0.43 -97.08,0.89 0.59,0.48 48.09,0.91 96.63,0.89 50.7,-0.02 99.75,-0.47 98.34,-0.89"
         style="fill:#160e15;fill-opacity:1;fill-rule:nonzero;stroke:none;stroke-width:0.1"
         id="path841" />
      <path
         d="m 1357.57,896.53 c 54.29,0.01 106.25,-0.47 103.21,-0.97 -2.06,-0.34 -47.54,-0.74 -84.38,-0.75 -54.16,-0.02 -111.04,0.45 -110.72,0.92 0.3,0.44 40.56,0.79 91.89,0.8"
         style="fill:#160e15;fill-opacity:1;fill-rule:nonzero;stroke:none;stroke-width:0.1"
         id="path843" />
      <path
         d="m 1198.94,1016.49 c 3.06,-0.29 -35.89,-0.56 -82.31,-0.58 -63.21,-0.03 -118.793,0.21 -118.977,0.53 -0.177,0.3 46.457,0.58 97.837,0.59 56.25,0.01 99.93,-0.22 103.45,-0.54"
         style="fill:#160e15;fill-opacity:1;fill-rule:nonzero;stroke:none;stroke-width:0.1"
         id="path845" />
      <path
         d="m 1233.89,259.69 c -24.48,-0.08 -48.89,-0.21 -73.46,-0.22 -54.14,-0.03 -92.88,0.92 -78.47,1.93 3.95,0.27 15.3,0.65 27.71,0.72 41.06,0.26 72.92,0.7 102.75,1.27 16.52,0.31 39.25,0.15 56.36,-0.14 17.9,-0.31 25.02,-0.76 8.02,-1.04 -43.58,-0.72 -36.71,-1.7 -46.57,-2.6 l 3.66,0.08"
         style="fill:#160e15;fill-opacity:1;fill-rule:nonzero;stroke:none;stroke-width:0.1"
         id="path847" />
      <path
         d="m 1121.24,347.87 c 52.03,-0.08 103.61,-1.24 96.93,-2.18 -6.06,-0.85 -55.56,-1.64 -98.3,-1.57 -54.91,0.09 -98.3,1.09 -94.93,2.19 2.52,0.82 52.6,1.64 96.3,1.56"
         style="fill:#160e15;fill-opacity:1;fill-rule:nonzero;stroke:none;stroke-width:0.1"
         id="path849" />
      <path
         d="m 1036.15,926.01 c -35.78,0.55 -34.58,0.71 6.55,0.87 40.26,0.16 86.09,0.15 119.6,-0.01 35.2,-0.17 42.02,-0.41 19.03,-0.68 -23.01,-0.27 -49.33,-0.3 -145.18,-0.18"
         style="fill:#160e15;fill-opacity:1;fill-rule:nonzero;stroke:none;stroke-width:0.1"
         id="path851" />
      <path
         d="m 1126.89,671.45 c -47.67,-0.08 -90.66,0.63 -94.26,1.55 -4.01,1.03 25.29,1.78 74.3,1.91 52.88,0.13 94.52,-0.43 101.17,-1.38 7.05,-1 -32.21,-2.01 -81.21,-2.08"
         style="fill:#160e15;fill-opacity:1;fill-rule:nonzero;stroke:none;stroke-width:0.1"
         id="path853" />
      <path
         d="m 1130.01,494.82 c -1.82,-0.84 -48.76,-1.55 -99.17,-1.51 -45.844,0.04 -86.639,0.92 -83.504,1.8 3.274,0.92 35.095,1.49 82.834,1.49 56.56,-0.01 101.92,-0.81 99.84,-1.78"
         style="fill:#160e15;fill-opacity:1;fill-rule:nonzero;stroke:none;stroke-width:0.1"
         id="path855" />
      <path
         d="m 475.875,568.25 c 38.719,0.03 76.011,-0.7 80.039,-1.58 3.619,-0.78 -32.195,-1.59 -73.122,-1.64 -57.116,-0.07 -97.526,0.61 -100.428,1.68 -2.304,0.86 36.304,1.49 93.511,1.54"
         style="fill:#160e15;fill-opacity:1;fill-rule:nonzero;stroke:none;stroke-width:0.1"
         id="path857" />
      <path
         d="m 1081.84,959.76 c -46.26,0.01 -90.212,0.53 -84.282,1 3.972,0.31 43.592,0.59 83.972,0.59 50.15,-0.01 94.25,-0.38 92.67,-0.79 -1.63,-0.42 -46.62,-0.81 -92.36,-0.8"
         style="fill:#160e15;fill-opacity:1;fill-rule:nonzero;stroke:none;stroke-width:0.1"
         id="path859" />
      <path
         d="m 1365.63,962.57 c 2.46,-0.37 -33.17,-0.83 -69.33,-0.88 -46.22,-0.08 -99.05,0.36 -102.33,0.83 -3,0.44 26.85,0.75 75.21,0.78 54.19,0.03 93.36,-0.27 96.45,-0.73"
         style="fill:#160e15;fill-opacity:1;fill-rule:nonzero;stroke:none;stroke-width:0.1"
         id="path861" />
      <path
         d="m 1424.4,869.31 c 0.9,-0.37 -40.74,-0.75 -81.37,-0.76 -38.2,-0.01 -80.59,0.39 -81.98,0.77 -1.31,0.35 30.98,0.7 68.27,0.73 50.66,0.04 93.97,-0.3 95.08,-0.74"
         style="fill:#160e15;fill-opacity:1;fill-rule:nonzero;stroke:none;stroke-width:0.1"
         id="path863" />
      <path
         d="m 1334.92,748.61 c 52.4,-0.01 95.69,-0.38 91.97,-0.79 -3.54,-0.39 -46.68,-0.74 -87.84,-0.7 -47.92,0.04 -86.79,0.44 -84.08,0.88 2.18,0.35 36.9,0.61 79.95,0.61"
         style="fill:#160e15;fill-opacity:1;fill-rule:nonzero;stroke:none;stroke-width:0.1"
         id="path865" />
      <path
         d="m 1124.13,413.22 c 3.32,-0.66 -37.15,-1.45 -80.94,-1.58 -39.61,-0.11 -85.144,0.59 -88.084,1.36 -3.261,0.86 39.128,1.74 84.664,1.76 35.64,0.01 80.69,-0.81 84.36,-1.54"
         style="fill:#160e15;fill-opacity:1;fill-rule:nonzero;stroke:none;stroke-width:0.1"
         id="path867" />
      <path
         d="m 1386.61,834.56 c -3.78,-0.45 -51.15,-0.87 -91.41,-0.82 -38.56,0.06 -74.19,0.47 -73.27,0.85 0.99,0.42 42.02,0.77 82.72,0.72 49.59,-0.07 85.01,-0.39 81.96,-0.75"
         style="fill:#160e15;fill-opacity:1;fill-rule:nonzero;stroke:none;stroke-width:0.1"
         id="path869" />
      <path
         d="m 1168.18,446.75 c -48.96,0.66 -84.42,1.22 -60.09,2.27 14.72,0.63 48.08,0.99 80.7,0.92 37.61,-0.08 71.35,-0.72 71.64,-1.43 0.44,-1.09 -42.15,-1.43 -92.25,-1.76"
         style="fill:#160e15;fill-opacity:1;fill-rule:nonzero;stroke:none;stroke-width:0.1"
         id="path871" />
      <path
         d="m 1568.63,747.25 c -1.88,-0.66 -42.17,-1.3 -79.76,-1.26 -47.23,0.05 -83.63,0.82 -83.72,1.77 -0.07,0.75 39.8,1.25 93.14,1.17 38.62,-0.05 72.63,-0.87 70.34,-1.68"
         style="fill:#160e15;fill-opacity:1;fill-rule:nonzero;stroke:none;stroke-width:0.1"
         id="path873" />
      <path
         d="m 1606.1,537.92 c -44.5,-0.05 -81.79,0.62 -81.88,1.47 -0.08,0.74 32.08,1.54 64.03,1.58 35.53,0.06 85.25,-0.72 90.18,-1.41 5.71,-0.79 -29.72,-1.6 -72.33,-1.64"
         style="fill:#160e15;fill-opacity:1;fill-rule:nonzero;stroke:none;stroke-width:0.1"
         id="path875" />
      <path
         d="m 812.913,835.13 c -2.027,-0.38 -45.712,-0.74 -86.002,-0.72 -35.382,0.01 -74.774,0.45 -74.448,0.83 0.339,0.39 40.91,0.71 85.596,0.69 42.93,-0.03 77.082,-0.4 74.854,-0.8"
         style="fill:#160e15;fill-opacity:1;fill-rule:nonzero;stroke:none;stroke-width:0.1"
         id="path877" />
      <path
         d="m 1139.92,517.34 c -49.17,-0.02 -79,0.41 -81.04,1.17 -2.6,0.97 36.38,1.75 84.93,1.7 41.67,-0.04 72.21,-0.61 73.14,-1.37 1.21,-0.99 -23.49,-1.47 -77.03,-1.5"
         style="fill:#160e15;fill-opacity:1;fill-rule:nonzero;stroke:none;stroke-width:0.1"
         id="path879" />
      <path
         d="m 1450.6,522.91 c -2.68,0.22 -6.75,0.45 -7.76,0.68 -2.56,0.58 2.88,1.11 36.04,1.35 34.63,0.26 76.66,0.03 102.81,-0.51 21.42,-0.44 25.87,-1.21 7.82,-1.75 -14.94,-0.44 -39.48,-0.62 -65.25,-0.45 -27.01,0.19 -51.62,0.5 -77.28,0.75 l 3.62,-0.07"
         style="fill:#160e15;fill-opacity:1;fill-rule:nonzero;stroke:none;stroke-width:0.1"
         id="path881" />
      <path
         d="m 1446.98,522.98 c -3.69,-0.54 -3.2,-1.11 -12.13,-1.62 -10.78,-0.62 -67.56,-0.72 -83.07,-0.14 -18.55,0.7 -33.05,1.45 -41.04,2.21 -2.78,0.27 15.44,0.77 30.56,0.9 15.02,0.13 43.59,0.06 56.58,-0.14 21.53,-0.34 35.34,-0.84 52.56,-1.28 0.16,0 -3.46,0.07 -3.46,0.07"
         style="fill:#160e15;fill-opacity:1;fill-rule:nonzero;stroke:none;stroke-width:0.1"
         id="path883" />
      <path
         d="m 1124.85,585.78 c -48.41,-0.01 -91.93,0.8 -88.52,1.65 2.55,0.64 43.63,1.25 81.66,1.22 36.36,-0.03 68.65,-0.66 72.33,-1.41 3.73,-0.76 -27.2,-1.45 -65.47,-1.46"
         style="fill:#160e15;fill-opacity:1;fill-rule:nonzero;stroke:none;stroke-width:0.1"
         id="path885" />
      <path
         d="m 1251.56,539.23 c 41,-0.11 73.75,-0.46 82.23,-1.27 10.11,-0.96 -26.59,-1.41 -59.65,-1.85 -47.38,0.18 -74.3,0.69 -81.03,1.44 -7.34,0.82 20.85,1.33 58.45,1.68"
         style="fill:#160e15;fill-opacity:1;fill-rule:nonzero;stroke:none;stroke-width:0.1"
         id="path887" />
      <path
         d="m 555.947,583.82 c -42.419,-0.02 -82.325,0.64 -87.646,1.45 -3.8,0.58 27.574,1.17 65.461,1.22 39.97,0.06 81.646,-0.49 86.096,-1.14 4.94,-0.72 -28.09,-1.51 -63.911,-1.53"
         style="fill:#160e15;fill-opacity:1;fill-rule:nonzero;stroke:none;stroke-width:0.1"
         id="path889" />
      <path
         d="m 1186.31,839.83 c 3.12,-0.35 -28.1,-0.67 -69.67,-0.71 -37.1,-0.04 -67.13,0.18 -71.54,0.52 -6.22,0.48 20.42,0.82 64.72,0.84 38.25,0.01 73.24,-0.28 76.49,-0.65"
         style="fill:#160e15;fill-opacity:1;fill-rule:nonzero;stroke:none;stroke-width:0.1"
         id="path891" />
      <path
         d="m 1260.68,251.72 c -35.65,0.04 -67.12,0.77 -63.78,1.48 2.85,0.61 34.51,1.15 68.12,1.17 37.75,0.02 71.61,-0.64 70.23,-1.37 -1.37,-0.72 -36.49,-1.33 -74.57,-1.28"
         style="fill:#160e15;fill-opacity:1;fill-rule:nonzero;stroke:none;stroke-width:0.1"
         id="path893" />
      <path
         d="m 1347.57,751.03 c 46.24,0.02 78.39,-0.57 79.72,-1.46 0.95,-0.63 -28.38,-1.18 -63.13,-1.2 -43.6,-0.01 -75.88,0.48 -78.4,1.2 -2.97,0.85 22.12,1.45 61.81,1.46"
         style="fill:#160e15;fill-opacity:1;fill-rule:nonzero;stroke:none;stroke-width:0.1"
         id="path895" />
      <path
         d="m 1246.28,533.04 c -33.53,0 -63.96,0.56 -65.74,1.2 -2.44,0.89 31.89,1.54 78.21,1.48 35.58,-0.05 58.68,-0.57 58.62,-1.31 -0.06,-0.77 -31.48,-1.38 -71.09,-1.37"
         style="fill:#160e15;fill-opacity:1;fill-rule:nonzero;stroke:none;stroke-width:0.1"
         id="path897" />
      <path
         d="m 1020.81,747.97 c -0.58,-0.32 -29.933,-0.57 -66.174,-0.57 -29.07,0 -50.083,0.23 -50.211,0.55 -0.124,0.31 20.726,0.55 50.207,0.57 34.553,0.02 66.748,-0.25 66.178,-0.55"
         style="fill:#160e15;fill-opacity:1;fill-rule:nonzero;stroke:none;stroke-width:0.1"
         id="path899" />
      <path
         d="m 1430.16,423.12 c 36.56,-0.02 63.18,-0.58 60.27,-1.27 -2,-0.48 -33.46,-0.97 -63.32,-0.98 -27.18,-0.02 -53.82,0.57 -52.26,1.15 1.69,0.63 25.85,1.11 55.31,1.1"
         style="fill:#160e15;fill-opacity:1;fill-rule:nonzero;stroke:none;stroke-width:0.1"
         id="path901" />
      <path
         d="m 1254.77,764.22 c -2.38,-0.27 -29.93,-0.51 -57.2,-0.51 -33.79,0.01 -63.83,0.31 -61.62,0.61 2.26,0.31 37.13,0.54 72.13,0.48 30.36,-0.05 49.31,-0.29 46.69,-0.58"
         style="fill:#160e15;fill-opacity:1;fill-rule:nonzero;stroke:none;stroke-width:0.1"
         id="path903" />
      <path
         d="m 708.396,462.13 c -28.56,0.4 -54.468,0.74 -79.025,1.11 -41.425,0.63 -38.196,1.36 7.442,1.9 21.038,0.25 57.009,0.05 61.867,-0.4 4.844,-0.45 1.412,-0.93 5.921,-1.38 3.475,-0.35 29.293,-0.61 3.795,-1.23"
         style="fill:#160e15;fill-opacity:1;fill-rule:nonzero;stroke:none;stroke-width:0.1"
         id="path905" />
      <path
         d="m 953.937,528.78 c -2.045,-0.6 -26.559,-1.04 -56.227,-1.02 -36.591,0.04 -64.199,0.61 -59.768,1.23 4.054,0.57 39.492,1.07 73.663,1.04 22.654,-0.03 44.327,-0.66 42.332,-1.25"
         style="fill:#160e15;fill-opacity:1;fill-rule:nonzero;stroke:none;stroke-width:0.1"
         id="path907" />
      <path
         d="m 593.285,359.99 c 2.649,-0.7 -21.165,-1.35 -51.967,-1.42 -29.746,-0.08 -56.255,0.34 -60.869,0.96 -5.274,0.7 16.94,1.31 51.301,1.4 28.739,0.07 59.455,-0.4 61.535,-0.94"
         style="fill:#160e15;fill-opacity:1;fill-rule:nonzero;stroke:none;stroke-width:0.1"
         id="path909" />
      <path
         d="m 1341.28,374.45 c -29.14,-0.05 -61.37,0.43 -62.47,0.94 -1.39,0.64 26.03,1.21 62.08,1.28 23.71,0.05 49.87,-0.36 53.03,-0.83 4.74,-0.69 -19.13,-1.32 -52.64,-1.39"
         style="fill:#160e15;fill-opacity:1;fill-rule:nonzero;stroke:none;stroke-width:0.1"
         id="path911" />
      <path
         d="m 1247.18,377.88 c -5.65,-0.28 -7.45,-0.54 -15.02,-0.7 -6.92,-0.15 -21.34,-0.3 -30.31,-0.27 -51.93,0.21 -74.33,1.43 -41.59,2.19 20.65,0.47 59.65,0.41 71.84,-0.15 7.68,-0.35 10.6,-0.74 15.08,-1.07"
         style="fill:#160e15;fill-opacity:1;fill-rule:nonzero;stroke:none;stroke-width:0.1"
         id="path913" />
      <path
         d="m 1569.49,424.7 c 22.95,-0.46 45,-0.73 52.58,-1.1 10.48,-0.51 -19.33,-1.17 -45.47,-1.15 -29.53,0.01 -59.96,0.54 -52.86,1.08 4.99,0.37 25.62,0.67 45.75,1.17"
         style="fill:#160e15;fill-opacity:1;fill-rule:nonzero;stroke:none;stroke-width:0.1"
         id="path915" />
      <path
         d="m 693.14,705.55 c -32.535,0.04 -53.717,0.51 -49.771,1.1 4.043,0.61 27.986,0.99 60.218,0.95 30.139,-0.04 53.307,-0.55 50.744,-1.12 -2.504,-0.57 -28.803,-0.96 -61.191,-0.93"
         style="fill:#160e15;fill-opacity:1;fill-rule:nonzero;stroke:none;stroke-width:0.1"
         id="path917" />
      <path
         d="m 1548.03,771.58 c -12.84,-0.09 -29.87,-0.28 -51.22,-0.34 -23.32,-0.06 -57.93,0.29 -57.58,0.53 0.35,0.24 33.69,0.52 60.72,0.51 26.81,-0.02 52.1,-0.32 48.08,-0.7"
         style="fill:#160e15;fill-opacity:1;fill-rule:nonzero;stroke:none;stroke-width:0.1"
         id="path919" />
      <path
         d="m 1580.93,278.54 c 25.17,0.08 57.6,-0.41 62.21,-0.93 4.26,-0.49 -19.64,-1.09 -47.76,-1.21 -26.59,-0.11 -59.64,0.39 -61.27,0.92 -1.65,0.53 21.81,1.14 46.82,1.22"
         style="fill:#160e15;fill-opacity:1;fill-rule:nonzero;stroke:none;stroke-width:0.1"
         id="path921" />
      <path
         d="m 1441.54,276.42 c -2.39,-0.47 -33.78,-0.9 -64.78,-0.89 -26.56,0.01 -44.6,0.59 -38.89,1.25 4.62,0.54 25.8,0.85 52.3,0.76 31.46,-0.09 54.07,-0.59 51.37,-1.12"
         style="fill:#160e15;fill-opacity:1;fill-rule:nonzero;stroke:none;stroke-width:0.1"
         id="path923" />
      <path
         d="m 1292.91,804.63 c 1.54,-0.24 -17.85,-0.48 -41.92,-0.51 -36.43,-0.04 -74.24,0.23 -70,0.52 3.78,0.27 23.36,0.41 51.36,0.45 31.86,0.05 58.65,-0.16 60.56,-0.46"
         style="fill:#160e15;fill-opacity:1;fill-rule:nonzero;stroke:none;stroke-width:0.1"
         id="path925" />
      <path
         d="m 1406.75,704.05 c 10.91,0.11 24.08,0.31 43.43,0.39 26.75,0.11 54.7,-0.13 59.53,-0.44 4.04,-0.26 -13.24,-0.49 -38.18,-0.5 -31.73,-0.02 -59.16,0.18 -64.78,0.55"
         style="fill:#160e15;fill-opacity:1;fill-rule:nonzero;stroke:none;stroke-width:0.1"
         id="path927" />
      <path
         d="m 1628.53,177.88 c -1.23,-0.55 -18.53,-0.87 -48.23,-0.89 -29.77,-0.03 -54.79,0.31 -56.18,0.76 -1.96,0.63 30.71,1.22 65.58,1.19 23.57,-0.02 40.14,-0.47 38.83,-1.06"
         style="fill:#160e15;fill-opacity:1;fill-rule:nonzero;stroke:none;stroke-width:0.1"
         id="path929" />
      <path
         d="m 958.54,706.53 c 0.378,-0.25 -21.163,-0.47 -46.434,-0.46 -25.119,0 -53.702,0.21 -55.239,0.41 -2.053,0.25 27.464,0.53 56.186,0.53 23.813,0 45.107,-0.23 45.487,-0.48"
         style="fill:#160e15;fill-opacity:1;fill-rule:nonzero;stroke:none;stroke-width:0.1"
         id="path931" />
      <path
         d="m 516.967,582.53 c -8.738,-0.22 -19.594,-0.68 -38.443,-0.9 -19.96,-0.24 -63.216,0.49 -59.02,0.97 4.354,0.5 18.922,0.89 47.043,1.03 20.976,0.1 47.782,-0.38 50.42,-1.1"
         style="fill:#160e15;fill-opacity:1;fill-rule:nonzero;stroke:none;stroke-width:0.1"
         id="path933" />
      <path
         d="m 1240.84,846.2 c -13.58,-0.09 -30.32,-0.28 -51.12,-0.33 -30.6,-0.08 -59.56,0.18 -61.11,0.46 -1.37,0.24 17.39,0.48 41.84,0.51 33.97,0.06 68.68,-0.21 70.39,-0.64"
         style="fill:#160e15;fill-opacity:1;fill-rule:nonzero;stroke:none;stroke-width:0.1"
         id="path935" />
      <path
         d="m 891.001,233.25 c -31.166,-0.02 -55.423,0.39 -59.461,1 -3.262,0.49 15.572,0.99 39.268,1.05 35.361,0.09 66.153,-0.43 66.424,-1.12 0.202,-0.51 -20.165,-0.92 -46.231,-0.93"
         style="fill:#160e15;fill-opacity:1;fill-rule:nonzero;stroke:none;stroke-width:0.1"
         id="path937" />
      <path
         d="m 1248.7,669.76 c 4.94,-0.77 -18.33,-1.24 -50.31,-1.25 -25.23,-0.01 -37.28,0.27 -40.39,0.7 -4.9,0.67 14.09,1.25 41.54,1.14 20.12,-0.08 37.05,-0.44 49.16,-0.59"
         style="fill:#160e15;fill-opacity:1;fill-rule:nonzero;stroke:none;stroke-width:0.1"
         id="path939" />
      <path
         d="m 826.035,534.87 c 23.466,0.05 45.391,-0.33 48.893,-0.84 3.599,-0.52 -13.499,-0.87 -43.439,-0.89 -27.901,-0.02 -47.15,0.29 -50.186,0.81 -2.656,0.46 17.454,0.87 44.732,0.92"
         style="fill:#160e15;fill-opacity:1;fill-rule:nonzero;stroke:none;stroke-width:0.1"
         id="path941" />
      <path
         d="m 1222.3,864.84 c 2.43,-0.36 -17.73,-0.55 -43.92,-0.55 -25.03,0.01 -36.92,0.17 -43.01,0.35 -6.76,0.2 16.63,0.51 38.87,0.48 19.47,-0.03 36.17,-0.21 48.06,-0.28"
         style="fill:#160e15;fill-opacity:1;fill-rule:nonzero;stroke:none;stroke-width:0.1"
         id="path943" />
      <path
         d="m 741.602,492.11 c 3.095,0.22 3.507,0.48 10.085,0.66 6.387,0.17 19.054,0.35 29.048,0.35 10.246,0.01 24.405,-0.16 30.187,-0.34 17.783,-0.52 9.192,-1.04 -11.911,-1.46 -6.685,-0.14 -21.299,-0.18 -32.246,-0.17 -5.64,0 -13.5,0.16 -16.261,0.29 -4.646,0.21 -6.027,0.44 -8.902,0.67"
         style="fill:#160e15;fill-opacity:1;fill-rule:nonzero;stroke:none;stroke-width:0.1"
         id="path945" />
      <path
         d="m 911.427,788.77 c 85.059,0.39 95.013,0.38 179.123,-0.14 -58.12,-0.05 -110.387,-0.12 -179.123,0.14"
         style="fill:#160e15;fill-opacity:1;fill-rule:nonzero;stroke:none;stroke-width:0.1"
         id="path947" />
      <path
         d="m 1187.42,777.98 c 23.21,-0.25 43.89,-0.39 50.32,-0.56 7.55,-0.21 -20.64,-0.44 -46.82,-0.42 -23.19,0.01 -43.91,0.14 -41.23,0.34 2.48,0.18 20.06,0.35 37.73,0.64"
         style="fill:#160e15;fill-opacity:1;fill-rule:nonzero;stroke:none;stroke-width:0.1"
         id="path949" />
      <path
         d="m 1308.3,550.36 c 18.69,-0.47 35.23,-0.73 40.26,-1.05 7.13,-0.46 -24.39,-1.01 -46.53,-0.86 -20.49,0.14 -40.09,0.44 -33.7,0.88 4.52,0.32 21.46,0.57 39.97,1.03"
         style="fill:#160e15;fill-opacity:1;fill-rule:nonzero;stroke:none;stroke-width:0.1"
         id="path951" />
      <path
         d="m 972.59,290.94 c 18.863,-0.45 36.36,-0.7 41.57,-1.02 6.23,-0.39 -28.42,-0.83 -54.371,-0.74 -26.016,0.09 -37.706,0.45 -30.31,0.86 5.338,0.3 23.855,0.52 43.111,0.9"
         style="fill:#160e15;fill-opacity:1;fill-rule:nonzero;stroke:none;stroke-width:0.1"
         id="path953" />
      <path
         d="m 1408.66,413.8 c 9.25,-0.18 27.47,-0.4 33.92,-0.71 8.04,-0.38 -0.27,-0.79 -24.75,-0.93 -23.85,-0.13 -41.29,0.07 -49.39,0.49 -8.97,0.47 7.72,1.05 40.22,1.15"
         style="fill:#160e15;fill-opacity:1;fill-rule:nonzero;stroke:none;stroke-width:0.1"
         id="path955" />
      <path
         d="m 1230.23,259.61 c 14.93,0.13 29.81,0.34 44.79,0.35 22.57,0 41.88,-0.27 37.51,-0.74 -2.4,-0.26 -14.64,-0.58 -27.12,-0.69 -23.07,-0.21 -40.46,0.06 -48.31,0.47 -4.06,0.22 -2.08,0.47 -3.02,0.7 -0.19,-0.01 -3.85,-0.09 -3.85,-0.09"
         style="fill:#160e15;fill-opacity:1;fill-rule:nonzero;stroke:none;stroke-width:0.1"
         id="path957" />
      <path
         d="m 1168.07,679.14 c -22.22,-0.34 -35.86,-0.71 -50.87,-0.73 -19.9,-0.03 -36.71,0.29 -38.23,0.74 -1.3,0.39 19.64,0.87 36.15,0.74 16.72,-0.12 29.92,-0.41 52.95,-0.75"
         style="fill:#160e15;fill-opacity:1;fill-rule:nonzero;stroke:none;stroke-width:0.1"
         id="path959" />
      <path
         d="m 1462.86,494.66 c -19.37,0.45 -36.91,0.68 -41.43,0.99 -6.18,0.42 8.58,0.79 32.41,0.82 23.26,0.04 41.99,-0.27 40.34,-0.69 -1.24,-0.32 -16.56,-0.61 -31.32,-1.12"
         style="fill:#160e15;fill-opacity:1;fill-rule:nonzero;stroke:none;stroke-width:0.1"
         id="path961" />
      <path
         d="m 736.623,460.29 c -22.47,-0.44 -36.78,-0.78 -54.696,-1.03 -2.908,-0.04 -28.981,0.29 -31.847,0.51 -6.571,0.5 13.61,1.03 37.374,1.02 13.34,-0.01 26.321,-0.26 49.169,-0.5"
         style="fill:#160e15;fill-opacity:1;fill-rule:nonzero;stroke:none;stroke-width:0.1"
         id="path963" />
      <path
         d="m 1009.69,850.37 c 31.54,0.05 58.5,-0.12 53.96,-0.29 -4.12,-0.15 -18.01,-0.36 -32.88,-0.41 -22.04,-0.07 -42.465,0.1 -42.269,0.31 0.142,0.15 15.619,0.29 21.189,0.39"
         style="fill:#160e15;fill-opacity:1;fill-rule:nonzero;stroke:none;stroke-width:0.1"
         id="path965" />
      <path
         d="m 1225.03,455.07 c -21.82,-0.35 -33.9,-0.65 -49.36,-0.73 -8.11,-0.05 -29.59,0.29 -31.95,0.5 -4.83,0.44 13.98,0.75 35.05,0.79 11.2,0.02 24.15,-0.28 46.26,-0.56"
         style="fill:#160e15;fill-opacity:1;fill-rule:nonzero;stroke:none;stroke-width:0.1"
         id="path967" />
      <path
         d="m 946.205,527.64 c 18.734,-0.42 35.586,-0.67 41.33,-0.99 2.311,-0.13 -17.824,-0.49 -31.194,-0.6 -16.545,-0.13 -44.861,0.35 -40.82,0.69 3.115,0.27 16.065,0.49 30.684,0.9"
         style="fill:#160e15;fill-opacity:1;fill-rule:nonzero;stroke:none;stroke-width:0.1"
         id="path969" />
      <path
         d="m 644.896,418.15 c 18.037,-0.38 33.033,-0.57 37.538,-0.83 6.515,-0.37 -19.497,-0.84 -38.232,-0.68 -12.236,0.1 -24.706,0.43 -25.937,0.68 -1.051,0.21 13.759,0.45 26.631,0.83"
         style="fill:#160e15;fill-opacity:1;fill-rule:nonzero;stroke:none;stroke-width:0.1"
         id="path971" />
      <path
         d="m 1471.24,838.39 c -17.46,0.18 -32.07,0.27 -35.31,0.38 -4.58,0.16 7.26,0.33 26.45,0.31 12.9,-0.02 30.5,-0.15 33.85,-0.26 2.78,-0.09 -12.14,-0.22 -24.99,-0.43"
         style="fill:#160e15;fill-opacity:1;fill-rule:nonzero;stroke:none;stroke-width:0.1"
         id="path973" />
      <path
         d="m 814.386,256.43 c -19.844,-0.31 -30.125,-0.58 -43.398,-0.65 -19.659,-0.1 -43.983,0.37 -36.264,0.71 5.07,0.23 22.932,0.47 35.611,0.48 11.613,0.01 23.956,-0.28 44.051,-0.54"
         style="fill:#160e15;fill-opacity:1;fill-rule:nonzero;stroke:none;stroke-width:0.1"
         id="path975" />
      <path
         d="m 1618.67,841.72 c -18.8,-0.14 -31.66,-0.29 -42.86,-0.28 -11.64,0.01 -30.76,0.18 -30.05,0.28 0.83,0.11 18.54,0.27 30.68,0.29 10.6,0.01 23.63,-0.16 42.23,-0.29"
         style="fill:#160e15;fill-opacity:1;fill-rule:nonzero;stroke:none;stroke-width:0.1"
         id="path977" />
      <path
         d="m 806.014,611.42 c 14.07,-0.37 27.778,-0.57 29.808,-0.81 3.098,-0.36 -14.347,-0.57 -30.897,-0.47 -12.951,0.08 -27.975,0.33 -31.36,0.56 -2.025,0.14 16.587,0.38 32.449,0.72"
         style="fill:#160e15;fill-opacity:1;fill-rule:nonzero;stroke:none;stroke-width:0.1"
         id="path979" />
      <path
         d="m 1634.38,789.65 c 11.57,-0.1 24.66,-0.16 26.21,-0.23 1.18,-0.06 -12.01,-0.2 -19.46,-0.2 -8.26,-0.01 -21.75,0.09 -24.46,0.16 -1.99,0.06 9.72,0.15 17.71,0.27"
         style="fill:#160e15;fill-opacity:1;fill-rule:nonzero;stroke:none;stroke-width:0.1"
         id="path981" />
      <path
         d="m 1661,285.29 c -10.44,-0.32 -14.43,-0.59 -23.6,-0.7 -13.22,-0.15 -41.89,0.36 -37.66,0.7 2.07,0.17 16.35,0.43 22.65,0.41 13.2,-0.05 24.78,-0.25 38.61,-0.41"
         style="fill:#160e15;fill-opacity:1;fill-rule:nonzero;stroke:none;stroke-width:0.1"
         id="path983" />
      <path
         d="m 1244.83,418.77 c -11.78,-0.23 -19.01,-0.49 -26.47,-0.49 -8.52,0 -17.24,0.22 -25.87,0.35 6.64,0.15 11.99,0.4 20.34,0.44 7.13,0.04 17.71,-0.16 32,-0.3"
         style="fill:#160e15;fill-opacity:1;fill-rule:nonzero;stroke:none;stroke-width:0.1"
         id="path985" />
      <path
         d="m 1269.67,562.85 c -11.51,-0.25 -18.36,-0.51 -26.09,-0.52 -8.11,-0.01 -22.45,0.21 -24.03,0.36 -1.35,0.13 10.09,0.4 18.47,0.44 6.99,0.04 17.73,-0.15 31.65,-0.28"
         style="fill:#160e15;fill-opacity:1;fill-rule:nonzero;stroke:none;stroke-width:0.1"
         id="path987" />
      <path
         d="m 725.759,433.8 c 7.604,-0.3 17.218,-0.51 14.613,-0.62 -3.035,-0.13 -16.466,-0.2 -26.033,-0.24 -2.512,-0.01 -11.716,0.24 -10.264,0.33 2.558,0.16 10.952,0.28 21.684,0.53"
         style="fill:#160e15;fill-opacity:1;fill-rule:nonzero;stroke:none;stroke-width:0.1"
         id="path989" />
      <path
         d="m 993.733,417.63 c -5.188,0.3 -10.583,0.48 -10.295,0.65 0.15,0.09 13.443,0.27 15.53,0.25 8.742,-0.1 15.492,-0.26 22.962,-0.4 -7.56,-0.13 -15.13,-0.27 -28.197,-0.5"
         style="fill:#160e15;fill-opacity:1;fill-rule:nonzero;stroke:none;stroke-width:0.1"
         id="path991" />
      <path
         d="m 1679.02,527.49 c -17.81,-0.18 -27.55,-0.28 -37.29,-0.38 -5.1,0.19 -11.13,0.38 -14.26,0.58 -0.46,0.03 13.83,0.21 19.58,0.18 9.17,-0.04 16.9,-0.19 31.97,-0.38"
         style="fill:#160e15;fill-opacity:1;fill-rule:nonzero;stroke:none;stroke-width:0.1"
         id="path993" />
      <path
         d="m 1370.93,525.85 c 5.28,-0.09 10.53,-0.18 15.79,-0.27 -7.74,-0.12 -15.47,-0.23 -23.21,-0.34 -3.74,0.13 -10.73,0.26 -10.11,0.38 0.44,0.09 11.3,0.16 17.53,0.23"
         style="fill:#160e15;fill-opacity:1;fill-rule:nonzero;stroke:none;stroke-width:0.1"
         id="path995" />
      <path
         d="m 1355.46,954.63 c 8.2,-0.14 18.46,-0.24 16.25,-0.31 -2.78,-0.07 -15.78,-0.12 -24.36,-0.18 -5.69,0.08 -16.12,0.16 -15.7,0.23 0.38,0.08 12.23,0.14 23.81,0.26"
         style="fill:#160e15;fill-opacity:1;fill-rule:nonzero;stroke:none;stroke-width:0.1"
         id="path997" />
      <path
         d="m 755.579,330.72 c -13.638,-0.15 -23.869,-0.34 -31.403,-0.31 -8.816,0.03 -15.283,0.27 -22.768,0.42 8.956,0.12 17.796,0.33 26.903,0.33 7.518,0.01 15.353,-0.23 27.268,-0.44"
         style="fill:#160e15;fill-opacity:1;fill-rule:nonzero;stroke:none;stroke-width:0.1"
         id="path999" />
      <path
         d="m 732.619,440.79 c 7.235,-0.06 14.443,-0.13 21.652,-0.19 -3.688,-0.13 -5.87,-0.31 -11.688,-0.38 -2.985,-0.04 -16.958,0.09 -17.915,0.17 -1.326,0.12 4.921,0.27 7.951,0.4"
         style="fill:#160e15;fill-opacity:1;fill-rule:nonzero;stroke:none;stroke-width:0.1"
         id="path1001" />
      <path
         d="m 1206.18,835.23 c -29.12,-0.11 -38.38,-0.15 -47.64,-0.18 -3.68,0.09 -8.9,0.17 -10.09,0.26 -0.35,0.03 11.6,0.11 16.43,0.1 10.48,-0.02 20,-0.09 41.3,-0.18"
         style="fill:#160e15;fill-opacity:1;fill-rule:nonzero;stroke:none;stroke-width:0.1"
         id="path1003" />
      <path
         d="m 1127.17,456.11 c -3.99,-0.12 -7.11,-0.31 -12.25,-0.33 -6.77,-0.03 -15.14,0.08 -22.82,0.13 4.48,0.11 7.86,0.29 13.75,0.33 5.77,0.04 14.1,-0.08 21.32,-0.13"
         style="fill:#160e15;fill-opacity:1;fill-rule:nonzero;stroke:none;stroke-width:0.1"
         id="path1005" />
      <path
         d="m 885.163,411.8 c 3.278,-0.03 6.557,-0.06 9.835,-0.08 -4.216,-0.08 -8.432,-0.15 -12.648,-0.23 -1.944,0.06 -5.899,0.12 -5.317,0.17 0.705,0.05 5.25,0.09 8.13,0.14"
         style="fill:#160e15;fill-opacity:1;fill-rule:nonzero;stroke:none;stroke-width:0.1"
         id="path1007" />
      <path
         d="m 1188.07,787.74 c -7.28,-0.03 -14.04,-0.07 -20.62,-0.07 -3.93,0 -7.57,0.08 -11.34,0.12 6.53,0.03 13.2,0.07 19.53,0.07 4.33,0 8.19,-0.08 12.43,-0.12"
         style="fill:#160e15;fill-opacity:1;fill-rule:nonzero;stroke:none;stroke-width:0.1"
         id="path1009" />
      <path
         d="m 1635.79,788.6 c 6.78,-0.04 13.53,-0.08 20.28,-0.12 -6.85,-0.04 -13.74,-0.1 -20.52,-0.1 -6.49,0 -12.86,0.07 -19.29,0.11 6.5,0.04 13.01,0.07 19.53,0.11"
         style="fill:#160e15;fill-opacity:1;fill-rule:nonzero;stroke:none;stroke-width:0.1"
         id="path1011" />
      <path
         d="m 1531.49,864.75 c -2.98,0.05 -5.94,0.11 -8.91,0.16 7.25,0.01 14.55,0.03 21.74,0.03 2.79,0 5.37,-0.06 8.04,-0.09 -6.95,-0.03 -13.89,-0.07 -20.87,-0.1"
         style="fill:#160e15;fill-opacity:1;fill-rule:nonzero;stroke:none;stroke-width:0.1"
         id="path1013" />
      <path
         d="m 1159.33,372.84 0.14,-0.14 -9.49,0.06 z"
         style="fill:#160e15;fill-opacity:1;fill-rule:nonzero;stroke:none;stroke-width:0.1"
         id="path1015" />
      <path
         d="m 713.396,364.07 c -2.554,-0.04 -5.109,-0.07 -7.663,-0.11 -2.044,0.08 -4.087,0.17 -6.131,0.25 3.488,0.01 7.692,0.05 10.248,0.03 2.17,-0.02 2.436,-0.11 3.546,-0.17"
         style="fill:#160e15;fill-opacity:1;fill-rule:nonzero;stroke:none;stroke-width:0.1"
         id="path1017" />
    </g>
  </g>
  <g
     inkscape:groupmode="layer"
     id="layer1"
     inkscape:label="Page 2"
     style="display:none"
     transform="translate(-861.45331,-577.72002)">
    <g
       id="g729"
       transform="matrix(0.13333333,0,0,-0.13333333,0,2724.9333)">
      <g
         id="g731"
         clip-path="url(#clipPath735)">
        <path
           d="m 14705.2,9695.9 c -0.7,13.5 -346.1,24.3 -771.6,24.3 -425.4,0 -769.8,-10.8 -769.1,-24.3 0.7,-13.4 346.1,-24.2 771.6,-24.2 425.4,0 769.8,10.8 769.1,24.2 z M 12747.1,6992.6 c 0.7,-13.4 481,-24.3 1072.7,-24.3 591.7,0 1070.8,10.9 1070.1,24.3 -0.6,13.4 -480.9,24.3 -1072.6,24.3 -591.7,0 -1070.8,-10.9 -1070.2,-24.3 z M 13013,4936 c -1.2,22.7 -410.8,41.2 -914.9,41.2 -504.1,0 -911.8,-18.5 -910.7,-41.2 1.2,-22.8 410.8,-41.3 914.9,-41.3 504.1,0 911.9,18.5 910.7,41.3 z m -1557.5,1303.9 c 455.4,0 824,10.8 823.3,24.2 -0.7,13.4 -370.4,24.3 -825.7,24.3 -455.4,0 -823.9,-10.9 -823.3,-24.3 0.7,-13.4 370.4,-24.2 825.7,-24.2 z m -1129,3239.2 c 82.7,-11.1 203.6,-18.1 338,-18.1 247.5,0 447,23.7 445.5,53 -1.5,29.2 -203.4,53 -450.9,53 -134.4,0 -254.6,-7.1 -336.2,-18.1 -82.7,11 -203.6,18.1 -338.06,18.1 -247.5,0 -446.92,-23.8 -445.43,-53 1.5,-29.3 203.35,-53 450.85,-53 134.44,0 254.64,7 336.24,18.1 z m 78,-1525.7 c -0.8,14.7 -361.3,26.5 -805.33,26.5 -444.02,0 -803.36,-11.8 -802.61,-26.5 0.74,-14.6 361.3,-26.5 805.32,-26.5 444.02,0 803.32,11.9 802.62,26.5 z M 8285.82,9882.3 c -23.18,11.2 -57.09,11.2 -79.71,11.2 -13.37,0 -26.74,0 -40.11,0 14.89,-0.7 29.82,-1.3 44.8,-1.8 10.55,-1 21.23,-1.8 30.77,-3 10.34,-6.4 32.95,-6.4 44.25,-6.4 z m 8825.88,510.1 c 18.3,-55.4 78.3,-45.4 128.3,-65.4 -350,-90 -750,-20 -1070,-210 -20,-10 30,-60 71.4,-64.3 7,-2.3 14.4,-4.4 21.8,-6.4 82,-21.5 177.3,-23.8 257.7,-48.3 4.2,-1.4 8.5,-2.8 12.7,-4.2 105.5,-35.7 205.4,-77.9 273.4,-147.8 121.1,-123.1 -95.1,-199.2 -208.5,-262.3 -10.3,-5.7 -19.8,-11.3 -28.1,-16.8 -754.1,-268.3 -1575,-279.5 -2366.3,-425.2 l 12,-11.2 c -200.8,-89.7 -445.6,11.2 -622.4,-100.9 256.2,-100.9 616.2,0 775.9,-224.2 25.7,-56 -82.6,-168.1 -158,-240.4 -8.8,-7.2 -17,-14.3 -24.8,-21.6 -7.7,-7.3 -14.8,-14.7 -21.4,-22.2 -17.4,-19.9 -30.3,-40.5 -35,-61.7 17.7,-31.5 38.3,-60.3 61.3,-87 23.4,-26.6 49.4,-51 79.4,-73.6 134.2,-79.5 280.4,-129 431.3,-168.3 37.7,-9.9 75.7,-19.1 113.9,-28 12.1,-4.3 24.7,-8.3 37.1,-12.1 159.9,-47.3 320.3,-58.5 472.6,-137 -281.2,-302.6 -846,-190.5 -1262.4,-302.6 -123.8,-33.6 -260.2,-44.8 -370.8,-112.1 751.4,-190.6 1644.7,-33.6 2302.7,-548.9 3.5,-11.2 6.6,-22.3 9.1,-33.1 2.6,-10.8 4.7,-21.4 6.2,-31.7 8,-156.6 -243.2,-145.5 -271,-268.6 -9.7,-33.5 116.2,-44.7 153.8,-111.9 -18.5,-28 -39.8,-53.3 -63.5,-76.4 -156.3,-152.8 -414.4,-207.7 -637.4,-274.9 -13.1,-3.9 -26.1,-7.9 -38.9,-12 -610.6,-185 -1206.9,-330.5 -1860.8,-464.8 -56.3,-11.2 -112.7,-22.4 -144.6,-67.2 14.4,-6 28.9,-11.9 43.4,-17.6 14.7,-5.7 29.4,-11.2 44.2,-16.5 263.4,-58.2 524.1,-98.5 788,-138.3 14.7,-2.2 29.4,-4.4 44.1,-6.6 499.8,-94.8 981.8,-150.9 1475.3,-206.9 -284,-246.6 -745,-156.9 -1077.6,-347.5 294.5,-179.3 644.7,-112.1 951.1,-302.6 0.6,-11.2 36,-33.7 25.1,-44.9 -230.4,-179.3 -543.1,-89.6 -812.3,-179.3 -22.2,-11.2 -43.9,-33.6 -70.7,-41.4 -12.6,-7.3 -24.7,-15.1 -36.5,-23.3 -141.7,-98.3 -229.2,-259.1 -234.3,-427.9 -14,-30.5 -34.8,-54.7 -59.5,-74.3 -49.6,-39.1 -115,-59.6 -194.6,-71.6 -24.9,-2.5 -49.6,-4.9 -73.9,-7.3 -24.3,-2.5 -48.3,-5 -72.1,-7.8 -77.1,-22.3 -163,-38.9 -252.5,-54 -14.9,-2.5 -29.9,-5 -45,-7.4 -150,-23 -313.3,-68.5 -462.4,-138.4 -13.6,-6.4 -27,-13 -39.4,-20.5 -133.3,-78.9 -100.7,-269.4 17.4,-347.9 119.2,-100.9 288.7,-67.2 430.8,-168.1 11.9,-11.2 24.5,-33.6 25.1,-44.9 -8.6,-56 -65.1,-67.2 -109.6,-89.6 -379.9,-157 -1028,22.4 -1132.1,-491.9 -0.7,-12.5 -1.9,-24.8 -3.8,-37 -15.5,-96.8 -82.3,-180.4 -185.9,-213.4 -27.6,-18.3 -52.6,-38.7 -75.4,-60.9 -182.5,-177.7 -226,-467.8 -398.2,-664.7 -21.7,-22.4 -67.2,-22.4 -91.2,0 -227.3,212.6 -255.3,537.1 -506.4,736.2 -41.1,15.1 -81.9,23 -122.6,31.3 -37.7,7.7 -75.4,15.9 -113,24.5 -30,6.2 -59,13 -87.4,20.1 -28.3,7.2 -56.1,14.7 -83.3,22.5 -56.1,24.7 -141.1,37.1 -209.9,55.9 -45.8,12.5 -84.4,27.8 -102.5,51.6 -9,11.9 -12.9,25.9 -10,42.7 -6.8,303.7 428.5,270.1 476.4,449.4 88.3,280.3 -572.9,269.1 -823.94,493.2 -48.51,56.1 41.04,89.7 85.44,94 14.1,4.6 28.4,8.9 42.8,13.1 503.6,146.7 1057,87 1529.1,293.2 -774.7,223.8 -1587.5,78.3 -2377.62,230.7 -13.96,3.4 -27.89,7 -41.79,10.7 -69.48,18.7 -138.06,41.8 -205.33,71.9 102.93,75.6 240.57,99.2 379.36,115.7 15.47,1.8 30.96,3.6 46.47,5.3 148.28,13.3 318.58,24.5 435.47,129.4 9.09,8.5 17.69,17.8 25.72,27.8 16.04,19.9 29.75,42.7 40.75,68.8 20.5,44.7 -76.93,167.8 -187.34,171.8 -15.1,3.4 -30.17,6.9 -45.18,10.5 -113.11,27.4 -222.51,63.2 -314.2,129.7 97.4,-4.3 194.58,-4.4 290.9,12.5 -104.24,33.6 -219.3,56 -307.57,0 5.48,-4.3 11.05,-8.5 16.67,-12.5 -96.7,4.2 -193.6,12.5 -290.07,12.5 415.77,111.9 870.86,123.1 1259.86,313.3 -219.3,56 -446.58,44.8 -657.5,138.3 -14.35,2.4 -29.71,4.9 -45.06,7.3 -15.36,2.5 -30.69,4.9 -46.01,7.4 -15.33,2.4 -30.64,4.9 -46.16,7.3 -137.74,30 -275.01,41.2 -409.32,72.4 -15.05,3 -30.08,6 -45.11,9.1 -195.29,40.5 -388.46,90 -579.88,158.2 -8.7,5.7 -14.82,14.1 -15.39,25.3 50.66,123.1 208.43,156.7 318.92,223.8 221.53,123.1 472.72,111.9 695.41,212.7 -27.35,33.5 -60.46,54.5 -96.67,69.4 -12.07,5 -24.48,9.2 -36.83,13.1 -263.55,107.7 -540.38,174.9 -826.89,208.4 68.87,212.7 381.02,123.1 545.6,246.2 10.82,11.2 21.07,33.6 20.5,44.8 -234.7,134.3 -505.24,78.3 -728.55,212.6 141.8,123.1 374.21,33.6 504.61,156.7 43.28,44.8 38.71,134.3 114.91,177.3 10.87,5.2 22.49,9.6 34.85,12.9 90.56,11.2 169.73,22.4 255.91,25.6 27.8,1.8 55.83,4.3 84.12,8 67.21,22.4 124.17,22.4 178.84,67.2 -12.12,5.5 -24.3,10.9 -36.55,16.3 -12.24,5.3 -24.41,10.6 -36.19,15.8 -125.5,57.4 -265.06,113.3 -402.33,124.5 -516.06,67.2 -1027.54,44.8 -1535.65,179.1 234.08,100.7 497.24,78.3 718.2,212.6 -213.63,167.9 -539.98,89.6 -774.69,223.8 100.24,44.8 337.75,78.4 263.11,201.5 -37.61,67.1 -187.99,111.9 -302.01,117.3 -13.32,2.7 -26.62,5.2 -39.9,7.5 -79.67,13.8 -158.34,20.3 -232,36.5 -13.91,3.6 -27.49,7.6 -40.64,12.3 -52.58,18.8 -98.45,48.4 -131.27,98.3 -8.2,12.5 -15.59,26.2 -22.06,41.4 47.83,78.4 125.53,118.3 217.05,137.6 13.08,2.8 26.43,5.1 40.02,7.1 521.52,0.8 1033.57,12 1574.13,-88.7 506.39,-100.7 975.11,89.5 1472.88,156.7 -185.1,55.9 -377.61,33.5 -561.02,55.9 11.39,0 11.39,0 22.78,0 -407.09,89.5 -853.65,159.2 -1259.4,288.5 -14.49,4.6 -28.93,9.3 -43.7,14.2 -483.67,191.3 -983.95,247.3 -1495.53,303.4 224.57,13.5 448.31,43.3 672.84,57.5 4.78,2.3 9.26,5.5 13.31,9.7 184.74,145.8 513.15,134.5 567.22,403.6 -1.72,33.6 -36.78,56 -75.56,63.8 -8.39,1.1 -16.75,2.3 -25.07,3.5 -91.54,13.2 -178.11,28.2 -244.81,56 88.66,20.5 174.39,16 261.03,11.9 25.72,11.6 51.7,22.2 77.93,31.7 13.38,4.9 26.7,9.5 39.33,13.5 226.43,55 451.96,66.2 676.72,99.9 14.97,1.5 29.3,2.7 43.62,4 171.91,15.3 342.45,37.9 504.76,96.8 -154.98,156.9 -421.71,67.2 -625.74,78.9 -14.73,-0.3 -29.47,-0.6 -44.2,-1 -58.92,-1.4 -117.8,-3.1 -176.68,-4.8 -14.72,-0.4 -29.44,-0.8 -44.16,-1.2 -424.55,-23.1 -856.67,-16 -1282.61,52.3 -8.04,1.3 -16.07,2.6 -24.11,3.9 C 6810,10327 6330,10447 5850,10587 c 90,10 170,50 260,50 420,20 850,-10 1270.4,49.5 7.85,1.9 15.66,4 23.43,6.2 15.54,4.3 30.93,9.1 46.17,14.3 -37.5,18.8 -75.78,33.4 -114.65,45 -7.77,2.4 -15.57,4.6 -23.4,6.6 -131.95,38.4 -271.95,28.4 -410.1,44.3 -8.04,0.4 -16.15,0.9 -24.25,1.3 -8.1,0.5 -16.19,0.9 -24.28,1.4 -53.32,-8.6 -93.32,11.4 -144.41,14.4 -7.89,1.2 -15.81,2.4 -23.71,3.8 -63.2,10.8 -125.2,27.2 -185.2,53.2 530,180 1090,30 1629.02,58.6 7.59,0.4 15.16,0.8 22.72,1.3 8.9,0 17.82,0 26.76,0 8.95,0 17.92,0 26.91,0 897.01,-1 1801.39,-1 2699.19,0 11.6,0 23.3,0 35,0 1640.3,0 3380.2,0 4549.7,0 4.3,0 8.5,0 12.7,0 178,0.1 348,0.1 526.8,0 6.7,0 13.6,0 20.4,0 6.7,0 13.5,0 20.2,0 6.8,0 13.5,0 20.5,0 120.1,0.1 250.1,0.1 370,0 4.4,0 9.3,0 14.3,0 158.7,0 275.2,0 341.3,0 4.1,0 8.1,0 11.9,0 22.6,0.1 52.6,10.1 62.6,0.1 100,-110 -90,-170 -170.9,-199 -7.5,-3.6 -14.8,-7.1 -22.2,-10.6 -29.8,-13.6 -61.7,-25.5 -94.8,-36.5 -8.3,-2.7 -16.6,-5.4 -25,-8 2.9,-5.9 -7.1,-15.9 -7.1,-15.9 10,-8 21.2,-13.2 33,-16.8 6,-1.8 12,-3.2 18.2,-4.3 24.4,-4.5 46.6,-6.7 67.7,-11.5 5.3,-1.3 10.5,-2.6 15.6,-4.3 15.5,6.9 35.5,-13.1 55.5,-23.1 -110,-30 -230,-40 -350,-60 220,-120 480,-80 714.9,-146.8 -4.7,-2.6 -9.2,-5.2 -13.2,-7.8 z M 7039.96,8814.1 c 86.71,-15 226.6,-24.8 384.05,-24.8 261.15,0 471.47,26.9 469.77,60.2 -1.7,33.2 -214.78,60.1 -475.92,60.1 -157.45,0 -296.34,-9.8 -381.51,-24.8 -86.72,15 -226.6,24.8 -384.06,24.8 -261.14,0 -471.46,-26.9 -469.77,-60.1 1.7,-33.3 214.78,-60.2 475.93,-60.2 157.45,0 296.34,9.8 381.51,24.8 z m -473.42,-694.6 c 1.89,-37 203.04,-67 449.28,-67 246.25,0 444.33,30 442.44,67 -1.89,37 -203.05,67 -449.29,67 -246.24,0 -444.32,-30 -442.43,-67 z m 419.81,-1339.6 c -298.45,0 -540.14,-5 -539.82,-11.1 0.31,-6.2 242.51,-11.2 540.97,-11.2 298.45,0 540.14,5 539.82,11.2 -0.31,6.1 -242.52,11.1 -540.97,11.1 z M 8047.86,5395.8 c -248.71,0 -448.03,-45 -445.19,-100.5 2.83,-55.5 206.75,-100.5 455.46,-100.5 248.72,0 448.03,45 445.2,100.5 -2.84,55.5 -206.76,100.5 -455.47,100.5 z M 9841.31,3609.7 c -144.19,0 -259.02,-39.9 -256.51,-89.2 2.52,-49.2 121.45,-89.2 265.63,-89.2 144.18,0 259.07,40 256.47,89.2 -2.5,49.3 -121.41,89.2 -265.59,89.2 z m 5715.29,1285 c -99.7,0 -179.4,-22.3 -178,-49.9 1.4,-27.6 83.4,-50 183.1,-50 99.7,0 179.4,22.4 178,50 -1.4,27.6 -83.4,49.9 -183.1,49.9 z m -224.8,865.8 c -234.9,0 -423.5,-37.3 -421.1,-83.3 2.3,-46 194.7,-83.2 429.6,-83.2 234.9,0 423.5,37.2 421.1,83.2 -2.3,46 -194.7,83.3 -429.6,83.3 z m 1462.9,2272.4 c -134.5,0 -254.6,-7 -336.2,-18.1 -82.7,11.1 -203.6,18.1 -338.1,18.1 -247.5,0 -446.9,-23.7 -445.4,-53 1.5,-29.2 203.3,-53 450.8,-53 134.5,0 254.7,7 336.3,18.1 82.7,-11.1 203.6,-18.1 338,-18.1 247.5,0 446.9,23.8 445.4,53 -1.5,29.3 -203.3,53 -450.8,53 z M 16376,7457.7 c -247.5,0 -447,-23.7 -445.5,-53 1.5,-29.2 203.4,-53 450.9,-53 247.5,0 446.9,23.8 445.4,53 -1.5,29.3 -203.3,53 -450.8,53 z m -665.9,146.8 c -61.6,0 -111,-9.1 -110.5,-20.4 0.6,-11.3 51,-20.4 112.6,-20.4 61.6,0 111.1,9.1 110.5,20.4 -0.6,11.3 -51,20.4 -112.6,20.4 z m -758,-40.8 c 1.2,-22.5 118.1,-40.7 261.1,-40.7 143.1,0 258.1,18.2 256.9,40.7 -1.1,22.5 -118,40.8 -261.1,40.8 -143,0 -258,-18.3 -256.9,-40.8 z m 1139.6,1030.9 c 0.6,-11 59.9,-19.9 132.6,-19.9 72.6,0 131.1,8.9 130.5,19.9 -0.5,11.1 -59.9,20 -132.6,20 -72.6,0 -131.1,-8.9 -130.5,-20 z m -223,20 c -1.2,22 -146.1,39.9 -323.8,39.9 -177.7,0 -320.8,-17.9 -319.7,-39.9 1.2,-22 146.1,-39.9 323.8,-39.9 177.7,0 320.8,17.9 319.7,39.9 z m -1078.8,334.9 c -1.1,22 311.2,39.9 697.7,39.9 386.4,0 700.6,-17.9 701.7,-39.9 1.2,-22 -311.2,-39.9 -697.6,-39.9 -386.5,0 -700.7,17.9 -701.8,39.9"
           style="fill:url(#linearGradient743);fill-opacity:1;fill-rule:nonzero;stroke:none"
           id="path745" />
      </g>
    </g>
  </g>
</svg>
